<svg viewBox="0 0 51 51" xmlns="http://www.w3.org/2000/svg" xmlns:xlink="http://www.w3.org/1999/xlink"><defs><path d="M20.178 36.447c1.315.451-1.538 4.267 4.197 4.267s3.023-3.841 4.394-4.336c4.964-1.79 8.51-6.529 8.51-12.092 0-7.101-5.777-12.857-12.904-12.857s-12.904 5.756-12.904 12.857c0 5.636 3.64 10.426 8.707 12.161z" id="a"/><mask id="b" maskContentUnits="userSpaceOnUse" maskUnits="objectBoundingBox" x="0" y="0" width="25.809" height="29.286" fill="#FFF"><use xlink:href="#a"/></mask></defs><g transform="translate(1)" stroke="#FFF" fill="none" fill-rule="evenodd"><use mask="url(#b)" stroke-width="4" xlink:href="#a"/><rect fill="#FFF" x="20.074" y="42.857" width="8.603" height="1.429" rx=".714"/><rect fill="#FFF" x="20.074" y="45.714" width="8.603" height="1.429" rx=".714"/><rect fill="#FFF" x="21.507" y="48.571" width="5.735" height="1.429" rx=".714"/><rect fill="#FFF" x="40.147" y="24.286" width="8.603" height="1.429" rx=".714"/><rect fill="#FFF" y="24.286" width="8.603" height="1.429" rx=".714"/><rect fill="#FFF" transform="rotate(-90 24.375 5)" x="20.074" y="4.286" width="8.603" height="1.429" rx=".714"/><rect fill="#FFF" transform="rotate(-45 38.713 10.628)" x="34.412" y="9.913" width="8.603" height="1.429" rx=".714"/><rect fill="#FFF" transform="scale(-1 1) rotate(-45 0 34.859)" x="5.735" y="9.913" width="8.603" height="1.429" rx=".714"/></g></svg>