<svg version="1.1" xmlns="http://www.w3.org/2000/svg" xmlns:xlink="http://www.w3.org/1999/xlink" x="0px" y="0px"
	 viewBox="0 0 880.6 764.4" style="enable-background:new 0 0 880.6 764.4;" xml:space="preserve">
<path d="M607.8,235.5h80.9l191.9,528.8h-78.5L746.9,606H539.5l-57.4,158.4h-73.4L607.8,235.5z M726.6,547.6L645.2,314l-84.6,233.6
	H726.6z" fill="currentColor"/>
<path d="M532.5,604.2c-102.4-41-163.8-92.2-225.3-143.4c0,0,12.8,12.8,0,0C245.8,512,102.4,593.9,102.4,593.9l-41-61.4
	C143.4,481.3,163.8,471,256,399.4c-21.1-19.6-122.9-133.1-133.1-194.6h81.9c41,92.2,102.4,143.4,102.4,143.4
	c102.4-81.9,102.4-194.6,102.4-194.6h81.9c0,0-10.2,133.1-122.9,245.8l0,0c51.2,51.2,102.4,92.2,194.6,133.1L532.5,604.2z M0,153.6
	h573.4V71.7H337.9V0h-92.2v71.7H0V153.6z" fill="currentColor"/>
</svg>
