<svg xmlns="http://www.w3.org/2000/svg" xmlns:xlink="http://www.w3.org/1999/xlink" viewBox="0 0 499.3464 135.0267">
  <style>
    .fill-color-vroom {
      fill: #F6901E;
    }
  </style>
		
	<g>
				<path class="fill-color-vroom" d="M441.1438,54.4634c-12.513,0-23.231,6.829-31.598,16.422-4.368-10.912-12.815-16.422-24.925-16.422-12.533,0-21.47,7.704-29.416,16.241V54.4184l-35.689-.018v92.931h35.689V90.0024a17.853,17.853,0,0,1,10.716-3.782c5.772,0,10.128,2.787,10.128,11.525v49.586h35.68V90.07a17.9732,17.9732,0,0,1,10.748-3.777c5.747,0,10.126,2.782,10.126,11.518v49.52H468.29V86.4544c0-19.683-8.661-31.991-27.146-31.991" transform="translate(-1.2405 -12.3047)" />
				<path class="fill-color-vroom" d="M257.3167,42.219a52.4807,52.4807,0,0,0-52.238,47.549,28.9448,28.9448,0,1,0,18.099,44.772,52.4811,52.4811,0,1,0,34.139-92.321m-57.982,85.611a9.688,9.688,0,1,1,9.699-9.691,9.6866,9.6866,0,0,1-9.699,9.691m57.982-12.204a20.915,20.915,0,1,1,20.909-20.902,20.8988,20.8988,0,0,1-20.909,20.902" transform="translate(-1.2405 -12.3047)" />
				<path class="fill-color-vroom" d="M193.4885,77.5767V54.4057s-23.095-1.776-35.121,16.525V54.3148l-35.632.0779v92.9h35.632v-28.239c0-17.456,11.367-37.653,35.121-41.477" transform="translate(-1.2405 -12.3047)" />
				<polygon class="fill-color-vroom" points="56.748 91.634 37.893 42.089 0 42.089 39.695 134.988 73.853 134.988 113.561 42.089 75.663 42.089 56.748 91.634" />
				<path class="fill-color-vroom" d="M360.4258,34.5459a18.0658,18.0658,0,0,1-.6592,5.4077,6.9092,6.9092,0,0,1-2.1611,3.2837,11.7621,11.7621,0,0,1-4.3946,2.0386,22.463,22.463,0,0,1-5.9687.7934q-5.9327,0-9.1426-2.1606a6.9689,6.9689,0,0,1-3.2109-6.14,17.9612,17.9612,0,0,1,1.0254-6.2012,41.3939,41.3939,0,0,1,4.3945-8.0567l1.4648,1.0254a52.7362,52.7362,0,0,0-3.1621,5.9815,10.208,10.208,0,0,0-.7441,3.833,4.791,4.791,0,0,0,2.7461,4.187,14.0772,14.0772,0,0,0,7.2148,1.6235,14.9325,14.9325,0,0,0,7.3975-1.6845q3.0029-1.6846,3.0029-4.126a8.9644,8.9644,0,0,0-.5254-3.0029,40.6315,40.6315,0,0,0-2.2578-4.7608l2.1485-6.5918a32.273,32.273,0,0,1,2.1,4.2725,16.8055,16.8055,0,0,1,.7324,5.3955ZM352.3936,15.332l-2.93,5.4688-5.7129-2.9785,2.9541-5.5176Z" transform="translate(-1.2405 -12.3047)" />
				<path class="fill-color-vroom" d="M381.1777,35.7178a22.1835,22.1835,0,0,1-6.03-1.001,29.5405,29.5405,0,0,1-5.3711-2.0752,6.5907,6.5907,0,0,1-3.4912,2.7832,9.3749,9.3749,0,0,1-2.7344.3174h-4.834V29.1016h4.834a9.2946,9.2946,0,0,0,3.4912-.5371,3.9762,3.9762,0,0,0,2.2949-2.3682,15.3891,15.3891,0,0,1,3.5645-5.1025q1.9277-1.782,3.2715-1.7823,1.245,0,3.0761,3.76a16.9736,16.9736,0,0,1,1.9287,7.3242Zm-4.5654-7.3731a4.0419,4.0419,0,0,0-1.05-1.8554q-1.1719-1.4649-2.0264-1.4649-.952,0-1.6113,2.1973,1.2686.4886,1.9287.7324a15.0307,15.0307,0,0,0,2.2217.7324C376.4326,28.6865,376.6123,28.5728,376.6123,28.3447Z" transform="translate(-1.2405 -12.3047)" />
				<path class="fill-color-vroom" d="M413.0869,35.7422l-3.1738-.0244a37.0833,37.0833,0,0,0-7.91.7568q-3.4423.7573-3.4424,1.7334.9522,2.93,1.6963,5.4932a17.4078,17.4078,0,0,1,.7452,4.8584,9.0313,9.0313,0,0,1-.3291,2.6855,8.0689,8.0689,0,0,1-1.2334,2.2461,39.8521,39.8521,0,0,0-1.1963-6.7627q-.318-1.2451-1.587-5.249a14.0546,14.0546,0,0,1-.7812-3.2715,8.53,8.53,0,0,1,.6348-2.8564,13.9,13.9,0,0,1,1.1718-2.4659,5.2063,5.2063,0,0,1,2.7217-1.9287,27.3009,27.3009,0,0,1,5.9209-1.1474q-1.9541-2.7342-3.418-2.7344a1.7962,1.7962,0,0,0-1.1962.4883,16.9329,16.9329,0,0,0-1.8311,2.1484l-1.1719-.5859a16.9874,16.9874,0,0,1,2.6494-5.75,4.4225,4.4225,0,0,1,3.4541-2.0142,5.6634,5.6634,0,0,1,3.6377,1.88,34.1645,34.1645,0,0,1,4.6387,5.8594Z" transform="translate(-1.2405 -12.3047)" />
				<path class="fill-color-vroom" d="M435.6455,34.0576q0,4.2-3.5644,8.3008T425.05,46.46a9.4693,9.4693,0,0,1-4.4316-1.294,64.1823,64.1823,0,0,1-7.3848-5.1025l1.0254-1.416a20.6245,20.6245,0,0,0,4.3213,2.3437,9.4938,9.4938,0,0,0,7.8369-.83,22.138,22.138,0,0,0,5.6641-5.0293,12.4832,12.4832,0,0,1-1.709.1465,4.9373,4.9373,0,0,1-3.8457-1.5747,6.1427,6.1427,0,0,1-1.4278-4.2847,15.6813,15.6813,0,0,1,1.6846-7.0556q1.831-3.6862,4.1748-3.6865,1.9527,0,3.32,2.6611a13.912,13.912,0,0,1,1.3672,6.4209Zm-2.93-4.956q-.684-3.93-2.7832-3.9307a1.44,1.44,0,0,0-1.209.5981,2.1242,2.1242,0,0,0-.4511,1.3062,1.6756,1.6756,0,0,0,.9648,1.4526,4.95,4.95,0,0,0,2.5508.5738Z" transform="translate(-1.2405 -12.3047)" />
				<path class="fill-color-vroom" d="M459.8154,24.0967,457.0811,31.03q-6.5685,2.0265-10.8643,3.125a61.5428,61.5428,0,0,1-6.2988,1.3183,26.7077,26.7077,0,0,1-3.7842.2686h-2.1973V29.1016h2.6367q.7076,0,1.05-.0245.7325-.0974,1.44-.1464a15.1859,15.1859,0,0,1-1.6358-2.9663,7.3761,7.3761,0,0,1-.415-2.5513,8.3286,8.3286,0,0,1,3.0156-6.36,10.1792,10.1792,0,0,1,7.043-2.7221,8.7056,8.7056,0,0,1,5.1758,1.7822,9.9613,9.9613,0,0,1,3.32,4.0283l-1.0254.8789a19.8443,19.8443,0,0,0-3.0645-.9521,15.0061,15.0061,0,0,0-2.7949-.22,24.7353,24.7353,0,0,0-5.249.4883q-2.8082.6108-2.8076,1.7578,0,1.6847,6.7871,5.5664Z" transform="translate(-1.2405 -12.3047)" />
				<path class="fill-color-vroom" d="M479.835,35.7422h-11.06a3.8669,3.8669,0,0,1-2.4658-.6836,3.2481,3.2481,0,0,1-1.05-2.71q0-1.0737.11-2.3193.1085-1.2451.3291-2.5147l.9278-.0488a1.833,1.833,0,0,0,.8662,1.2451,3.176,3.176,0,0,0,1.624.3907h8.3984a14.7441,14.7441,0,0,0-1.9531-5.7373,10.1872,10.1872,0,0,0-3.1982-3.0762l1.7578-7.6172a12.7536,12.7536,0,0,1,4.4922,6.1035,27.9977,27.9977,0,0,1,1.2207,9.1309Z" transform="translate(-1.2405 -12.3047)" />
				<path class="fill-color-vroom" d="M500.5869,35.7178a22.1842,22.1842,0,0,1-6.03-1.001,29.5434,29.5434,0,0,1-5.3711-2.0752,6.59,6.59,0,0,1-3.4912,2.7832,9.3742,9.3742,0,0,1-2.7343.3174h-4.834V29.1016h4.834a9.2946,9.2946,0,0,0,3.4912-.5371,3.9762,3.9762,0,0,0,2.2949-2.3682,15.39,15.39,0,0,1,3.5644-5.1025q1.9278-1.782,3.2715-1.7823,1.2452,0,3.0762,3.76a16.9736,16.9736,0,0,1,1.9287,7.3242Zm-4.5654-7.3731a4.0419,4.0419,0,0,0-1.05-1.8554q-1.1719-1.4649-2.0264-1.4649-.9522,0-1.6113,2.1973,1.2686.4886,1.9287.7324a15.0307,15.0307,0,0,0,2.2217.7324C495.8418,28.6865,496.0215,28.5728,496.0215,28.3447Z" transform="translate(-1.2405 -12.3047)" />
				<path class="fill-color-vroom" d="M490.2676,146.83a7.1879,7.1879,0,0,1-5.358-2.111,8.0075,8.0075,0,0,1,.021-10.784,7.8468,7.8468,0,0,1,10.719-.035,8.0258,8.0258,0,0,1-.022,10.797,7.2024,7.2024,0,0,1-5.36,2.133m.023-1.318a5.7529,5.7529,0,0,0,4.343-1.731,6.7471,6.7471,0,0,0-.033-8.909,6.2723,6.2723,0,0,0-8.676-.022,6.728,6.728,0,0,0,.034,8.898,5.7453,5.7453,0,0,0,4.332,1.764m2.3-2.21a1.4,1.4,0,0,1-1.229-.781l-1.361-1.944h-.805v1.719q0,.9615-.914.961h-.291q-.894,0-.894-1.184v-5.538q0-1.161,1.095-1.161h2.389q3.261,0,3.26,2.524a2.16,2.16,0,0,1-1.831,2.299l1.787,2.345c.029.045-.009.126-.112.245a1.6494,1.6494,0,0,1-.47.347,1.3234,1.3234,0,0,1-.624.168m-3.44-6.298v2.033h1.318q1.2735,0,1.273-1.006c0-.683-.44-1.027-1.318-1.027Z" transform="translate(-1.2405 -12.3047)" />
	</g>
</svg>