<svg id="Layer_1" data-name="Layer 1" xmlns="http://www.w3.org/2000/svg" xmlns:xlink="http://www.w3.org/1999/xlink" viewBox="0 0 494.16 148.8">
<style type="text/css">
    .fill-color-black {
      fill: #000000;
    }
  </style>
<g>
	<path class="fill-color-black" d="M494.16,141.6116a9.5181,9.5181,0,0,1-2.5569,4.5988,8.1175,8.1175,0,0,1-8.6616.942,7.4452,7.4452,0,0,1-3.8165-7.4173c.3667-3.3808,2.3251-5.896,5.3677-6.581,5.3293-1.2,9.0376,1.8643,9.4869,6.0172.0108.1.1181.1894.18.2838Zm-1.5972-1.1908a5.7752,5.7752,0,0,0-6.0823-6.0851c-3.4888.0209-5.8256,2.4419-5.8405,6.0509a5.91,5.91,0,0,0,6.0211,6.2159A5.8265,5.8265,0,0,0,492.5628,140.4208Z" />
	<path class="fill-color-black" d="M408.931,71.9842a57.6916,57.6916,0,0,1,10.5421-9.4609A36.6361,36.6361,0,0,1,441.51,55.6921c7.0665.1974,13.4856,2.0868,18.477,7.4245A27.0883,27.0883,0,0,1,466.76,77.7831a68.9734,68.9734,0,0,1,.8784,10.4705c.0814,19.5258.0392,39.0522.0392,58.5783V148.36H431.8857v-1.4012c0-16.0123.0192-32.0246-.0283-48.0367a18.6216,18.6216,0,0,0-.6563-5.0735c-1.439-4.9639-5.2791-6.4761-10.0229-6.3218a17.5616,17.5616,0,0,0-8.98,2.9965,2.0972,2.0972,0,0,0-1.0965,2.02q.0464,27.1329.0228,54.2659v1.5427h-35.707V146.94q0-23.599-.02-47.1981a25.4336,25.4336,0,0,0-.4646-4.988c-.9113-4.4788-3.8651-6.9664-8.4245-7.27a17.0021,17.0021,0,0,0-11.2471,3.3326,2.2157,2.2157,0,0,0-.6492,1.6085q-.05,25.6354-.0274,51.2711V148.4H318.927V55.72h35.6366V71.4812l.2623.1479c1.5233-1.5442,3.0027-3.1347,4.5782-4.6237,4.2974-4.0612,8.9407-7.6709,14.6261-9.5587,8.9387-2.9681,17.6279-2.5484,25.7309,2.6475,4.0946,2.6256,6.7424,6.5042,8.716,10.8749C408.6058,71.254,408.7324,71.54,408.931,71.9842Z" />
	<path class="fill-color-black" d="M204.4466,90.8768a52.5163,52.5163,0,1,1,86.54,44.7745,51.1159,51.1159,0,0,1-34.1744,12.6648A52.02,52.02,0,0,1,222.7,135.8319,29.3083,29.3083,0,0,1,184.8,144.6447a29.003,29.003,0,0,1-14.1469-32.2295,28.34,28.34,0,0,1,12.6086-17.5418A28.7056,28.7056,0,0,1,204.4466,90.8768Zm73.1349,5.0744a20.87,20.87,0,1,0-20.9157,20.7768A20.8554,20.8554,0,0,0,277.5815,95.9512ZM198.78,128.9123a9.6429,9.6429,0,0,0,.0952-19.2856,9.6431,9.6431,0,1,0-.0952,19.2856Z" />
	<path class="fill-color-black" d="M.8163,55.59h1.38c11.7526,0,23.5053.0131,35.2577-.0244a1.5127,1.5127,0,0,1,1.7011,1.1874Q48.1049,80.4,57.133,104.0179c.0848.2224.1911.4366.3916.89.6259-1.6139,1.1867-3.043,1.7351-4.4769q8.3912-21.9429,16.77-43.89c.23-.6025.4355-.9747,1.2251-.9726q18.1084.0473,36.2171.0243c.2265,0,.4531.0339.8164.0629-.2343.6019-.4175,1.1161-.6319,1.6171Q94.388,102.287,75.1372,147.3088a1.59,1.59,0,0,1-1.7353,1.18q-15.83-.059-31.66-.0057a1.5983,1.5983,0,0,1-1.78-1.1208Q20.6249,102.051,1.2236,56.7663C1.086,56.4448.9928,56.1043.8163,55.59Z" />
	<path class="fill-color-black" d="M122.1959,55.6039h35.6413V71.6075a37.2668,37.2668,0,0,1,15.4589-12.3484,45.97,45.97,0,0,1,19.5991-3.6612V78.756c-1.5658.3655-3.2122.6611-4.8053,1.1355-15.9336,4.7452-25.4365,15.523-29.2058,31.4783a44.3137,44.3137,0,0,0-.96,9.4908c-.1257,8.7017-.0434,17.4064-.0434,26.11v1.4948h-1.3373c-10.9915,0-21.9831-.0157-32.9745.0244-1.0958.004-1.3983-.2787-1.3972-1.3876q.046-45.0944.0245-90.1888Z" />
	<path class="fill-color-black" d="M104.861,17.8736c1.491-2.2287,3.258-3.7191,5.8574-4.0169,4.8745-.5584,8.1079,1.8609,8.4106,6.7283.2474,3.9764.1188,7.98.0561,11.97-.0277,1.7654-1.017,2.4242-3.153,2.3947-1.8371-.0254-2.7619-.811-2.792-2.5477-.05-2.8731-.0156-5.7477-.0168-8.6217,0-.3193.0033-.6387-.0007-.958-.026-2.0837-.8009-3.42-2.229-3.8486a4.5993,4.5993,0,0,0-4.9577,1.8044,2.9272,2.9272,0,0,0-.3257,1.4663c-.0279,3.1931.0137,6.3869-.0243,9.58-.0267,2.2406-.8129,3.0933-2.7233,3.1255-2.4833.0418-3.31-.7648-3.3167-3.264-.0075-2.6744-.0016-5.3489-.0017-8.0233,0-.2794.0058-.559-.0026-.8382-.0491-1.6336-.3755-3.1454-2.1172-3.8068a4.3135,4.3135,0,0,0-4.8211,1.5339,2.9039,2.9039,0,0,0-.561,1.6126c-.0511,3.2723-.0214,6.5459-.0267,9.8191-.0036,2.1818-.7912,2.9684-2.9467,2.9667-2.152-.0016-3.0117-.8258-3.0144-2.9336-.007-5.4685.0207-10.9373-.0247-16.4055a1.2677,1.2677,0,0,1,1.1751-1.4622c2.37-.51,3.8244.3423,4.7344,2.9759A7.54,7.54,0,0,1,98.7186,13.77C101.5181,13.9,103.7383,14.9981,104.861,17.8736Z" />
	<path class="fill-color-black" d="M29.9865,21.26C30.062,28.79,24.8253,35.3645,15.89,35.3516,7.4924,35.34,1.8774,29.4857,1.918,20.932c.0391-8.2691,5.9559-13.9308,14.5152-13.89C24.3193,7.0805,30.0119,13.0522,29.9865,21.26Zm-6.13.0037a22.1584,22.1584,0,0,0-.3875-2.7086c-.7331-2.7518-2.3147-4.84-5.15-5.6255a7.4958,7.4958,0,0,0-7.68,1.6685c-2.1421,2.0772-2.6673,4.7379-2.45,7.5841.4088,5.368,4.8494,8.6085,9.9481,7.301C21.5477,28.6089,23.7425,25.4175,23.8568,21.2641Z" />
	<path class="fill-color-black" d="M39.3422,31.7947c0,2.936.0039,5.5593-.0012,8.1825-.0042,2.1923-.7694,2.953-2.9493,2.9517-2.1857-.0012-3.0086-.7822-3.0105-2.9179-.0072-8.1046.0158-16.2092-.0263-24.3135a1.3466,1.3466,0,0,1,1.3274-1.5736c2.3775-.4075,3.5752.3328,4.6122,2.9813.1307-.0924.2837-.1478.3525-.2565,2.72-4.2986,10.0991-3.8386,13.3262-.03,3.9607,4.6745,3.15,13.4389-1.6923,16.89C48.1685,35.9275,42.4042,36.3086,39.3422,31.7947Zm0-7.6134c0,.399-.0025.7981,0,1.1971A4.8,4.8,0,0,0,43.3178,30.44c2.9009.4653,5.2627-.8078,5.9835-3.4939a9.9805,9.9805,0,0,0,.198-4,4.8165,4.8165,0,0,0-4.21-4.2778C41.5256,18.2227,39.3418,20.247,39.3418,24.1813Z" />
	<path class="fill-color-black" d="M190.229,31.963c0,2.752.0033,5.369-.0011,7.986-.0036,2.21-.7605,2.9775-2.9212,2.98-2.238.0026-3.0386-.78-3.04-3.0094-.0046-8.0646.02-16.1293-.0271-24.1937-.0064-1.1046.4613-1.4646,1.42-1.6132,2.3571-.3654,3.5587.4,4.4738,2.9365.1019-.0271.2546-.02.3042-.0878,2.2569-3.0948,5.3637-3.6812,8.8494-2.868a8.5565,8.5565,0,0,1,6.6281,6.833,12.7864,12.7864,0,0,1-1.7488,10.857C201.5788,35.4558,194.3679,37.3513,190.229,31.963Zm-.0005-7.7839c0,.439-.0046.878.0008,1.3168a4.8069,4.8069,0,0,0,3.854,4.93,5.007,5.007,0,0,0,6.01-3.1353,7.272,7.272,0,0,0-.06-5.599,4.6258,4.6258,0,0,0-3.855-3.02C192.4154,18.2131,190.2284,20.2463,190.2285,24.1791Z" />
	<path class="fill-color-black" d="M222.3577,22.3186c.1549-2.6912-1.5331-4.2306-4.2421-4.0424a5.4884,5.4884,0,0,0-4.5857,2.6214,1.5268,1.5268,0,0,1-1.2213.5712c-1.1693-.1408-2.3408-.51-2.7632-1.7722A2.8693,2.8693,0,0,1,210.53,16.35a12.5151,12.5151,0,0,1,3.9572-2.0872,15.89,15.89,0,0,1,8.291.0111,7.0126,7.0126,0,0,1,5.5748,7.0274c.0667,4.1509-.0049,8.3038.036,12.4553.0079.8044-.4084,1.0445-1.0354,1.19a3.513,3.513,0,0,1-4.5655-2.3543,4.724,4.724,0,0,0-.2624-.4744c-2.4493,2.938-5.6075,3.56-9.128,2.8761a5.5935,5.5935,0,0,1-4.6853-4.6608,5.6535,5.6535,0,0,1,3.3589-6.3728,21.7183,21.7183,0,0,1,8.2818-1.6364C221.0226,22.2841,221.6966,22.3186,222.3577,22.3186Zm-.0493,3.03c-2.1325.4028-4.2167.6766-6.2279,1.22a2.231,2.231,0,0,0-1.6473,2.5971,2.3,2.3,0,0,0,2.0526,2.0222A4.7746,4.7746,0,0,0,222.3084,25.3489Z" />
	<path class="fill-color-black" d="M158.3526,26.119a5.128,5.128,0,0,0,3.9327,4.5272c2.5717.6551,5.0094.3495,6.9683-1.6713.5341-.5509.8535-1.4227,1.8892-.88,1.0078.5276,1.9028,1.217,1.7715,2.4484a3.373,3.373,0,0,1-.9167,2.0989,10.8343,10.8343,0,0,1-3.44,2.0474,14.1558,14.1558,0,0,1-8.4836.0769c-4.8762-1.4364-7.2994-5.5854-7.1295-10.4912a10.1854,10.1854,0,0,1,4.5375-8.65A10.7057,10.7057,0,0,1,168.85,15.02c3.7006,1.9061,5.1466,5.2726,5.0642,9.3437-.0288,1.4262-.3643,1.7519-1.79,1.7533C167.5737,26.1217,163.0232,26.119,158.3526,26.119Zm.091-3.5273h9.8321a4.4207,4.4207,0,0,0-4.24-4.6223A5.1375,5.1375,0,0,0,158.4436,22.5917Z" />
	<path class="fill-color-black" d="M142.2854,13.6264a38.7892,38.7892,0,0,1,4.9734,1.1182,6.0336,6.0336,0,0,1,2.4937,1.9329,2.6035,2.6035,0,0,1-.91,3.81,1.3705,1.3705,0,0,1-1.1521-.329,7.8155,7.8155,0,0,0-6.8684-1.9711c-1.0012.176-1.8694.5267-1.958,1.7319-.0865,1.1766.7886,1.4534,1.6539,1.6935,1.995.5535,4.0322.9788,5.9885,1.6434,2.9922,1.0166,4.1843,2.6633,4.1792,5.4a5.8212,5.8212,0,0,1-4.2773,5.8251,15.9494,15.9494,0,0,1-10.345-.0869,7.151,7.151,0,0,1-2.48-1.6008,2.5934,2.5934,0,0,1-.4045-3.3893c.7456-1.1759,1.1823-1.2262,2.27-.3432a9.21,9.21,0,0,0,7.7967,1.7385,1.714,1.714,0,0,0,1.6423-1.6228c.058-1.0614-.64-1.4914-1.4963-1.7267-1.9581-.5378-3.95-.963-5.8858-1.5686-2.1352-.668-3.7949-1.9335-4.1223-4.325a5.9561,5.9561,0,0,1,2.9758-6.4093A12.858,12.858,0,0,1,142.2854,13.6264Z" />
	<path class="fill-color-black" d="M60.4127,19.0373c-2.893-.3427-3.47-.7292-3.5233-2.2817-.0586-1.7028.4125-2.072,3.5375-2.6953,0-.8429-.0286-1.7149.006-2.5844.07-1.75.8422-2.5737,2.4287-2.6462,2.3542-.1077,3.1691.4359,3.3984,2.3654.112.9423.1051,1.8987.1613,3.0383,1.21,0,2.394-.04,3.574.01,1.6665.07,2.2663.7469,2.2473,2.416-.0169,1.4973-.6654,2.2049-2.1729,2.26-1.2322.0449-2.4675.0091-3.8608.0091v5.41c0,1.118-.0041,2.236.0013,3.3539.0051,1.07.1214,2.1426,1.2079,2.6732a2.8234,2.8234,0,0,0,3.1975-.6713c.1786-.1478.3481-.3066.5088-.4489a2.8142,2.8142,0,0,1,.4085,4.59,6.074,6.074,0,0,1-4.6649,1.4933c-4.3139-.1654-6.27-2.1867-6.4222-6.5255-.0573-1.635-.0279-3.2731-.0322-4.91C60.41,22.3,60.4127,20.7075,60.4127,19.0373Z" />
	<path class="fill-color-black" d="M238.664,16.9178c.2229-.3223.4205-.6.61-.883a5.0856,5.0856,0,0,1,5.9938-1.9789,3.0239,3.0239,0,0,1,2.1035,2.5157,3.5356,3.5356,0,0,1-1.1532,3.4468,1.233,1.233,0,0,1-1.1142.0539c-2.78-1.4851-5.2937-.531-5.953,2.5468a36.8569,36.8569,0,0,0-.4535,5.9317c-.0608,1.273.0108,2.5517-.0171,3.8269-.0384,1.7521-.9092,2.5526-2.7381,2.5717-2.1384.0224-3.1487-.722-3.2059-2.4929-.0591-1.8322-.0145-3.6677-.0147-5.5018,0-3.7877.0309-7.5758-.022-11.3628a1.2579,1.2579,0,0,1,1.1908-1.4461C236.1724,13.667,237.4245,14.3664,238.664,16.9178Z" />
	<path class="fill-color-black" d="M75.5267,24.48c0-2.5122-.0237-5.0246.0075-7.5364.0263-2.11.9428-2.9733,3.0282-2.9514,2.0624.0218,2.9559.9207,2.96,3.0374q.0153,7.4766,0,14.9533c-.0047,2.0884-.8579,2.9517-2.865,2.9658-2.2743.016-3.0969-.7291-3.1236-2.9323C75.5032,29.505,75.5266,26.9925,75.5267,24.48Z" />
	<path class="fill-color-black" d="M123.5027,24.5205c.0005-2.5121-.0214-5.0245.0072-7.5364.0242-2.1352.9074-2.9911,2.9889-2.9912,2.0691,0,2.9946.9032,3,2.9969q.0186,7.4766.001,14.9533c-.0041,2.1565-.8471,3.0008-2.9452,3.006-2.2238.0056-3.0241-.7632-3.0465-3.0117C123.4833,29.4653,123.5023,26.9928,123.5027,24.5205Z" />
	<path class="fill-color-black" d="M162.1578,11.654c-2.11-.0293-2.4922-.5149-1.6219-1.6755a60.4423,60.4423,0,0,1,4.225-4.7963,3.2014,3.2014,0,0,1,1.2485-.67,2.8871,2.8871,0,0,1,3.4206.9331,2.6688,2.6688,0,0,1-.4773,3.385,9.721,9.721,0,0,1-2.9925,1.8789A27.2778,27.2778,0,0,1,162.1578,11.654Z" />
	<path class="fill-color-black" d="M129.8164,7.9143c-.0128,1.9427-1.2086,3.0212-3.3445,3.0163-2.0681-.0048-3.339-1.1863-3.32-3.0862.019-1.8735,1.3194-3.0271,3.4026-3.0185C128.6625,4.8345,129.8294,5.94,129.8164,7.9143Z" />
	<path class="fill-color-black" d="M81.84,7.8765c-.004,1.96-1.1723,3.0394-3.3066,3.0542-2.0671.0143-3.3559-1.1559-3.3576-3.0485-.0017-1.8769,1.2857-3.0463,3.3647-3.0563C80.6493,4.8158,81.8438,5.92,81.84,7.8765Z" />
	<path class="fill-color-black" d="M485.5251,141.5377c0,.8623-.0125,1.3385.0029,1.8138.0226.7-.3154,1.0184-1.0035,1.0458-.6781.0271-1.1161-.2669-1.127-.9422-.0322-1.9949-.068-3.9935.0356-5.9835.0186-.3569.66-.9082,1.0744-.9716a12.3007,12.3007,0,0,1,2.8663-.0189c1.7006.1433,2.4681.7042,2.7373,1.8551.3118,1.3332-.0386,2.0606-1.5639,3.1139l1.5605,2.1727c-.8762,1.0677-1.6552,1.0963-2.4136.1017-.3626-.4755-.6514-1.0112-1.0426-1.46A5.7368,5.7368,0,0,0,485.5251,141.5377Zm.1011-3.4658v2.055c.9191-.1136,2.26.4876,2.3063-.9509C487.98,137.7229,486.5939,138.2606,485.6262,138.0719Z" />
</g>
</svg>