<svg version="1.1" id="Layer_1" xmlns="http://www.w3.org/2000/svg" xmlns:xlink="http://www.w3.org/1999/xlink" x="0px" y="0px"
	 viewBox="0 0 497.2 43.8" style="enable-background:new 0 0 497.2 43.8;" xml:space="preserve">
  <g transform="matrix(2.85714 0 0 2.85714 0 227.143)">
    <path d="M128-74.8c-0.7,0-1.8,0.5-2.1,1.3h-0.1v-1.2h-1.3v7.1h1.3v-3.8c0-1.3,0.9-2.1,1.8-2.1c0.3,0,0.5,0,0.7,0.1l0.5-1.2
      C128.7-74.8,128.4-74.8,128-74.8L128-74.8z" fill="currentColor"/>
    <path d="M152-78.2h1.3v10.5H152C152-67.6,152-78.2,152-78.2z" fill="currentColor"/>
    <path d="M147.8-74.8c-1.4,0-2.8,0.8-2.8,2.1c0,1.2,1.2,1.8,1.8,1.9l1.4,0.3c0.7,0.2,1,0.6,1,0.9c0,0.6-0.6,1-1.4,1
      c-0.8,0-1.5-0.4-1.9-1.3l-1.2,0.5c0.4,1,1.4,2,3,2c1.6,0,2.8-0.9,2.8-2.2c0-0.8-0.6-1.7-1.9-2l-1.4-0.3c-0.5-0.1-0.9-0.4-0.9-0.8
      c0-0.6,0.7-0.9,1.4-0.9c0.7,0,1.3,0.3,1.6,0.9l1.1-0.5C150.1-74.3,149-74.8,147.8-74.8L147.8-74.8z" fill="currentColor"/>
    <path d="M157.8-68.7c-0.7,0-1.5-0.3-1.5-1.1c0-0.6,0.6-1.3,2-1.3c1.1,0,1.6,0.4,1.6,0.4C159.8-69.6,158.8-68.7,157.8-68.7z
      M158-74.8c-1.7,0-2.7,1-2.9,1.6l1.2,0.5c0.2-0.6,1.1-0.9,1.8-0.9c1,0,1.8,0.6,1.8,1.7v0.2c-0.3-0.2-0.9-0.4-1.9-0.4
      c-1.6,0-3.1,0.8-3.1,2.4c0,1.4,1.3,2.3,2.7,2.3c1.2,0,1.9-0.6,2.2-1.2h0.1v1.1h1.3v-4.3C161.1-73.8,159.7-74.8,158-74.8L158-74.8z"
       fill="currentColor"/>
    <path d="M132.5-68.7c-0.7,0-1.5-0.3-1.5-1.1c0-0.6,0.6-1.3,2-1.3c1.1,0,1.6,0.4,1.6,0.4C134.6-69.6,133.5-68.7,132.5-68.7z
      M132.8-74.8c-1.7,0-2.7,1-2.9,1.6l1.2,0.5c0.2-0.6,1.1-0.9,1.8-0.9c1,0,1.8,0.6,1.8,1.7v0.2c-0.3-0.2-0.9-0.4-1.9-0.4
      c-1.6,0-3.1,0.8-3.1,2.4c0,1.4,1.3,2.3,2.7,2.3c1.2,0,1.9-0.6,2.2-1.2h0.1v1.1h1.3v-4.3C135.8-73.8,134.5-74.8,132.8-74.8
      L132.8-74.8z" fill="currentColor"/>
    <path d="M168.6-72c0.3-1,1-1.6,2-1.6c1.5,0,2,1,2.1,1.6H168.6z M170.6-74.8c-2.1,0-3.4,1.7-3.4,3.7c0,2.1,1.4,3.7,3.6,3.7
      c1.6,0,2.6-0.9,3.1-1.9l-1.2-0.5c-0.4,0.9-1.1,1.2-1.9,1.2c-1.1,0-2.2-0.8-2.2-2.2h5.5c0,0,0-0.1,0-0.2
      C174-73.4,172.7-74.8,170.6-74.8L170.6-74.8z" fill="currentColor"/>
    <path d="M141-74.8c-1,0-1.9,0.6-2.2,1.2h-0.1v-1.1h-1.3v7.1h1.3v-3.8c0-1.1,0.7-2.2,1.9-2.2c1,0,1.8,0.5,1.8,2v4h1.3v-4.2
      C143.7-73.6,142.8-74.8,141-74.8z" fill="currentColor"/>
    <path d="M164.6-76.8h-1.3v2.1H162v1.2h1.2v3.7c0,1.4,0.8,2.3,2.3,2.3c0.4,0,0.8-0.1,1.1-0.2l-0.5-1.1c-0.2,0.1-0.4,0.1-0.6,0.1
      c-0.6,0-1-0.4-1-1.2v-3.6h1.7v-1.2h-1.7L164.6-76.8L164.6-76.8z" fill="currentColor"/>
    <path d="M124.1-78.2h-7.2v1.4h2.9v9.2h1.3v-9.2h2.9L124.1-78.2L124.1-78.2z" fill="currentColor"/>
    <path d="M71.3-74v1.6h3.9c-0.1,0.9-0.4,1.6-0.9,2.1c-0.6,0.6-1.5,1.2-3,1.2c-2.4,0-4.3-1.9-4.3-4.4s1.9-4.4,4.3-4.4
      c1.3,0,2.3,0.5,3,1.2l1.2-1.2c-1-0.9-2.3-1.7-4.1-1.7c-3.3,0-6.1,2.7-6.1,6s2.8,6,6.1,6c1.8,0,3.1-0.6,4.2-1.7
      c1.1-1.1,1.4-2.6,1.4-3.8c0-0.4,0-0.7-0.1-1H71.3L71.3-74z" fill="currentColor"/>
    <path d="M81.8-75.4c-2.1,0-3.9,1.6-3.9,3.9c0,2.2,1.7,3.9,3.9,3.9c2.1,0,3.9-1.6,3.9-3.9C85.7-73.7,84-75.4,81.8-75.4z M81.8-69.2
      c-1.2,0-2.2-1-2.2-2.3c0-1.4,1-2.3,2.2-2.3c1.2,0,2.2,1,2.2,2.3C84-70.1,83-69.2,81.8-69.2z" fill="currentColor"/>
    <path d="M100.9-74.5L100.9-74.5c-0.4-0.5-1.2-0.9-2.1-0.9c-1.9,0-3.6,1.7-3.6,3.9c0,2.2,1.7,3.9,3.6,3.9c0.9,0,1.7-0.4,2-0.9h0.1
      v0.5c0,1.5-0.8,2.3-2.1,2.3c-1,0-1.7-0.7-2-1.4l-1.5,0.6c0.4,1,1.6,2.3,3.4,2.3c2,0,3.7-1.2,3.7-4v-7h-1.6
      C100.9-75.2,100.9-74.5,100.9-74.5z M98.9-69.2c-1.2,0-2.1-1-2.1-2.3c0-1.4,0.9-2.3,2.1-2.3c1.2,0,2.1,1,2.1,2.4
      C101-70.1,100.1-69.2,98.9-69.2z" fill="currentColor"/>
    <path d="M90.5-75.4c-2.1,0-3.9,1.6-3.9,3.9c0,2.2,1.7,3.9,3.9,3.9c2.1,0,3.9-1.6,3.9-3.9C94.4-73.7,92.7-75.4,90.5-75.4z
      M90.5-69.2c-1.2,0-2.2-1-2.2-2.3c0-1.4,1-2.3,2.2-2.3c1.2,0,2.2,1,2.2,2.3C92.7-70.1,91.7-69.2,90.5-69.2z"/>
    <path d="M103.8-79.3h1.7v11.7h-1.7C103.8-67.6,103.8-79.3,103.8-79.3z" fill="currentColor"/>
    <path d="M110.7-69.2c-0.9,0-1.5-0.4-1.9-1.2l5.2-2.1l-0.2-0.4c-0.3-0.9-1.3-2.5-3.3-2.5c-2,0-3.7,1.6-3.7,3.9
      c0,2.2,1.6,3.9,3.8,3.9c1.8,0,2.8-1.1,3.2-1.7l-1.3-0.9C112.2-69.6,111.6-69.2,110.7-69.2z M110.6-73.9c0.7,0,1.3,0.4,1.5,0.9
      l-3.5,1.4C108.5-73.3,109.7-73.9,110.6-73.9z" fill="currentColor"/>
    <path d="M5.4-70.7c0,1-0.2,1.7-0.7,2.3c-0.4,0.6-1,0.9-1.8,0.9c-0.8,0-1.4-0.2-1.8-0.7v3.1H0V-74h1L1-73.3c0.4-0.5,1.1-0.8,1.8-0.8
      c0.8,0,1.4,0.3,1.8,0.9C5.1-72.6,5.4-71.9,5.4-70.7C5.4-70.8,5.4-70.7,5.4-70.7z M4.3-70.9c0-0.7-0.2-1.3-0.5-1.7
      c-0.3-0.4-0.7-0.6-1.3-0.6c-0.7,0-1.1,0.3-1.5,0.9v3c0.3,0.6,0.8,0.9,1.5,0.9c0.5,0,0.9-0.2,1.2-0.6C4.1-69.4,4.3-70,4.3-70.9z" fill="currentColor"/>
    <path d="M6.5-70.9c0-0.6,0.1-1.2,0.4-1.7c0.2-0.5,0.6-0.9,1-1.1c0.4-0.3,0.9-0.4,1.5-0.4c0.9,0,1.6,0.3,2.1,0.9
      c0.5,0.6,0.8,1.4,0.8,2.4v0.1c0,0.6-0.1,1.2-0.4,1.7c-0.2,0.5-0.6,0.9-1,1.1c-0.4,0.3-0.9,0.4-1.5,0.4c-0.9,0-1.6-0.3-2.1-0.9
      C6.7-69,6.5-69.8,6.5-70.9C6.5-70.8,6.5-70.9,6.5-70.9z M7.5-70.7C7.5-70,7.7-69.5,8-69c0.3,0.4,0.8,0.6,1.3,0.6
      c0.6,0,1-0.2,1.3-0.6c0.3-0.4,0.5-1,0.5-1.8c0-0.7-0.2-1.3-0.5-1.7c-0.3-0.4-0.8-0.7-1.3-0.7c-0.5,0-1,0.2-1.3,0.6
      C7.7-72.1,7.5-71.5,7.5-70.7z" fill="currentColor"/>
    <path d="M19.2-69.1l1.2-4.8h1.1l-1.8,6.3h-0.9l-1.5-4.8l-1.5,4.8h-0.9L13-74h1.1l1.2,4.7l1.5-4.7h0.9L19.2-69.1z" fill="currentColor"/>
    <path d="M25.2-67.5c-0.9,0-1.6-0.3-2.1-0.8c-0.5-0.6-0.8-1.3-0.8-2.3v-0.2c0-0.6,0.1-1.2,0.4-1.7c0.2-0.5,0.6-0.9,1-1.2
      c0.4-0.3,0.9-0.4,1.4-0.4c0.8,0,1.5,0.3,1.9,0.8c0.5,0.5,0.7,1.3,0.7,2.3v0.5h-4.3c0,0.6,0.2,1.1,0.5,1.5c0.4,0.4,0.8,0.6,1.3,0.6
      c0.4,0,0.7-0.1,1-0.2c0.3-0.2,0.5-0.4,0.7-0.6l0.7,0.5C27.1-67.9,26.3-67.5,25.2-67.5z M25.1-73.2c-0.4,0-0.8,0.2-1.1,0.5
      c-0.3,0.3-0.5,0.8-0.6,1.3h3.2v-0.1c0-0.6-0.2-1-0.4-1.3C25.9-73,25.6-73.2,25.1-73.2z" fill="currentColor"/>
    <path d="M32-73c-0.2,0-0.3,0-0.5,0c-0.7,0-1.2,0.3-1.4,0.9v4.5H29V-74H30l0,0.7c0.4-0.6,0.9-0.8,1.5-0.8c0.2,0,0.4,0,0.5,0.1V-73z"
       fill="currentColor"/>
    <path d="M35.5-67.5c-0.9,0-1.6-0.3-2.1-0.8c-0.5-0.6-0.8-1.3-0.8-2.3v-0.2c0-0.6,0.1-1.2,0.4-1.7c0.2-0.5,0.6-0.9,1-1.2
      c0.4-0.3,0.9-0.4,1.4-0.4c0.8,0,1.5,0.3,1.9,0.8c0.5,0.5,0.7,1.3,0.7,2.3v0.5h-4.3c0,0.6,0.2,1.1,0.5,1.5c0.4,0.4,0.8,0.6,1.3,0.6
      c0.4,0,0.7-0.1,1-0.2c0.3-0.2,0.5-0.4,0.7-0.6l0.7,0.5C37.4-67.9,36.6-67.5,35.5-67.5L35.5-67.5z M35.4-73.2
      c-0.4,0-0.8,0.2-1.1,0.5c-0.3,0.3-0.5,0.8-0.6,1.3h3.2v-0.1c0-0.6-0.2-1-0.4-1.3C36.2-73,35.9-73.2,35.4-73.2z" fill="currentColor"/>
    <path d="M39-70.9c0-1,0.2-1.8,0.7-2.3c0.5-0.6,1.1-0.9,1.8-0.9c0.7,0,1.3,0.3,1.8,0.8v-3.3h1.1v9h-1l-0.1-0.7
      c-0.4,0.5-1,0.8-1.8,0.8c-0.7,0-1.3-0.3-1.8-0.9C39.2-69,39-69.8,39-70.9L39-70.9L39-70.9z M40.1-70.7c0,0.7,0.1,1.3,0.4,1.7
      c0.3,0.4,0.7,0.6,1.2,0.6c0.7,0,1.2-0.3,1.5-0.9v-2.9c-0.3-0.6-0.8-0.9-1.5-0.9c-0.5,0-0.9,0.2-1.2,0.6
      C40.2-72.1,40.1-71.5,40.1-70.7z" fill="currentColor"/>
    <path d="M54.4-70.7c0,1-0.2,1.7-0.7,2.3c-0.4,0.6-1,0.9-1.8,0.9c-0.8,0-1.4-0.3-1.9-0.8L50-67.6h-1v-9h1.1v3.4
      c0.4-0.5,1-0.8,1.8-0.8s1.4,0.3,1.8,0.9C54.2-72.6,54.4-71.8,54.4-70.7L54.4-70.7L54.4-70.7z M53.3-70.9c0-0.7-0.1-1.3-0.4-1.7
      c-0.3-0.4-0.7-0.6-1.2-0.6c-0.7,0-1.2,0.3-1.5,1v2.7c0.3,0.7,0.8,1,1.6,1c0.5,0,0.9-0.2,1.2-0.6C53.2-69.4,53.3-70,53.3-70.9z" fill="currentColor"/>
    <path d="M57.8-69.2l1.5-4.8h1.2l-2.5,7.3c-0.4,1.1-1,1.6-1.9,1.6l-0.2,0l-0.4-0.1V-66l0.3,0c0.4,0,0.7-0.1,0.9-0.2
      c0.2-0.1,0.4-0.4,0.5-0.8l0.2-0.6L55-74h1.2C56.2-74,57.8-69.2,57.8-69.2z" fill="currentColor"/>
  </g>
</svg>
