<svg id="Layer_1" data-name="Layer 1" xmlns="http://www.w3.org/2000/svg" xmlns:xlink="http://www.w3.org/1999/xlink" viewBox="0 0 507.937 145.089">
 <style type="text/css">
    .fill-color-black {
      fill: #000000;
    }
  </style>
	<g>
		<path class="fill-color-black" d="M444.4915,51.2521c-12.643,0-23.474,6.899-31.927,16.594-4.414-11.027-12.949-16.594-25.186-16.594-12.662,0-21.694,7.784-29.723,16.411V51.2061l-36.06-.018v93.9h36.06V87.1621a18.0377,18.0377,0,0,1,10.829-3.822c5.831,0,10.234,2.817,10.234,11.645v50.103h36.052V87.2311a18.1549,18.1549,0,0,1,10.86-3.817c5.806,0,10.231,2.811,10.231,11.638v50.036h36.06V83.5771c0-19.889-8.751-32.325-27.43-32.325" />
		<path class="fill-color-black" d="M258.7473,38.88a53.0276,53.0276,0,0,0-52.783,48.045,29.2463,29.2463,0,1,0,18.288,45.238,53.0282,53.0282,0,1,0,34.495-93.283m-58.588,86.504a9.789,9.789,0,1,1,9.801-9.793,9.7886,9.7886,0,0,1-9.801,9.793m58.588-12.331a21.1335,21.1335,0,1,1,21.127-21.121,21.1184,21.1184,0,0,1-21.127,21.121" />
		<path class="fill-color-black" d="M194.2532,74.6066V51.1936s-23.336-1.795-35.488,16.697V51.1016l-36.002.079V145.05h36.002v-28.533c0-17.639,11.486-38.046,35.488-41.91" />
		<polygon class="fill-color-black" points="57.339 101.243 38.287 51.181 0 51.181 40.109 145.05 74.624 145.05 114.745 51.181 76.452 51.181 57.339 101.243" />
		<path class="fill-color-black" d="M2.55,14.7843A17.2954,17.2954,0,0,1,3.793,7.8078a12.7909,12.7909,0,0,1,2.5327-3.73A10.5955,10.5955,0,0,1,9.8418,1.629,14.936,14.936,0,0,1,15.7051.5529a12.7717,12.7717,0,0,1,9.6206,3.73q3.6085,3.7294,3.6089,10.372,0,6.5874-3.5811,10.3072a12.6728,12.6728,0,0,1-9.5742,3.72A12.8016,12.8016,0,0,1,6.1309,24.98Q2.5494,21.2784,2.55,14.7843Zm5.6592-.1855q0,4.62,2.1338,7.0044a6.9509,6.9509,0,0,0,5.4179,2.3842,6.8927,6.8927,0,0,0,5.39-2.3657q2.1057-2.3657,2.1059-7.0971,0-4.6758-2.05-6.9766a6.9382,6.9382,0,0,0-5.4458-2.3008,6.9838,6.9838,0,0,0-5.4736,2.3286Q8.2086,9.905,8.209,14.5988Z" />
		<path class="fill-color-black" d="M32.9609,28.2179V1.0167h5.2139v9.7969A7.3772,7.3772,0,0,1,43.89,8.0675a7.6837,7.6837,0,0,1,5.9561,2.607q2.3562,2.6073,2.3564,7.4868,0,5.047-2.4028,7.7744a7.4987,7.4987,0,0,1-5.8354,2.7275,7.2166,7.2166,0,0,1-3.3306-.8442,7.9577,7.9577,0,0,1-2.83-2.4956v2.8945Zm5.1768-10.2793a8.3777,8.3777,0,0,0,.9648,4.5274,4.1237,4.1237,0,0,0,3.6,2.0781,3.689,3.689,0,0,0,2.941-1.4751,7.26,7.26,0,0,0,1.2153-4.648q0-3.3763-1.2246-4.8706a3.8758,3.8758,0,0,0-3.1358-1.4936,3.9291,3.9291,0,0,0-3.1171,1.4565A6.6866,6.6866,0,0,0,38.1377,17.9386Z" />
		<path class="fill-color-black" d="M54.5586,22.5958l5.2324-.7978a3.83,3.83,0,0,0,1.3545,2.31,4.5755,4.5755,0,0,0,2.8574.7886,5.1566,5.1566,0,0,0,3.043-.7422,1.6566,1.6566,0,0,0,.6865-1.3916,1.3708,1.3708,0,0,0-.3711-.9834,4.1634,4.1634,0,0,0-1.7441-.6865q-6.3092-1.3916-7.9971-2.542a5.0762,5.0762,0,0,1-2.3379-4.4346,5.4646,5.4646,0,0,1,2.0225-4.3046q2.0222-1.7439,6.2715-1.7442,4.0444,0,6.0117,1.3174a6.7363,6.7363,0,0,1,2.709,3.8965l-4.917.9092a3.0426,3.0426,0,0,0-1.1968-1.7627,4.3775,4.3775,0,0,0-2.5142-.6123,5.6657,5.6657,0,0,0-2.95.5752,1.2356,1.2356,0,0,0-.5938,1.0576,1.1517,1.1517,0,0,0,.52.9463,19.5436,19.5436,0,0,0,4.8706,1.4658A14.5053,14.5053,0,0,1,71.332,18.18a4.8214,4.8214,0,0,1,1.6328,3.878,5.9529,5.9529,0,0,1-2.2636,4.6572q-2.2639,1.9482-6.6983,1.9482A10.9869,10.9869,0,0,1,57.6294,27.03,7.5208,7.5208,0,0,1,54.5586,22.5958Z" />
		<path class="fill-color-black" d="M77.5293,14.8585V1.0167h5.2139V10.424l2.542-2.1524V11.797l-2.542,2.1524V28.2179H77.5293v-9.834l-2.542,2.1524V17.0109Z" />
		<path class="fill-color-black" d="M101.0566,28.2179v-2.95a7.5918,7.5918,0,0,1-2.83,2.4863,7.9342,7.9342,0,0,1-3.7017.9092,7.2408,7.2408,0,0,1-3.5625-.872,5.1421,5.1421,0,0,1-2.2822-2.4493,10.9237,10.9237,0,0,1-.7051-4.36V8.5128H93.19v9.0547a25.0942,25.0942,0,0,0,.2876,5.0933,2.7732,2.7732,0,0,0,1.0483,1.4844,3.2191,3.2191,0,0,0,1.93.5473,4.1008,4.1008,0,0,0,2.3935-.7329,3.7271,3.7271,0,0,0,1.4473-1.8183,21.1067,21.1067,0,0,0,.39-5.316V8.5128h5.2139V28.2179Z" />
		<path class="fill-color-black" d="M110.8164,29.5167l5.9561.7237a2.0323,2.0323,0,0,0,.6865,1.4287,3.919,3.919,0,0,0,2.3379.5566,6.073,6.073,0,0,0,3.0615-.6123,2.5274,2.5274,0,0,0,1.0391-1.3174,7.924,7.924,0,0,0,.2412-2.3935v-2.876a7.0544,7.0544,0,0,1-5.9,3.1914,7.2622,7.2622,0,0,1-6.29-3.3584A11.4138,11.4138,0,0,1,110.13,18.254q0-4.9541,2.3843-7.57a7.6935,7.6935,0,0,1,5.9282-2.6162,7.219,7.219,0,0,1,6.03,3.21V8.5128h4.88V26.1954a17.6253,17.6253,0,0,1-.5752,5.2139,6.4669,6.4669,0,0,1-1.6142,2.709,7.15,7.15,0,0,1-2.7739,1.54,14.6047,14.6047,0,0,1-4.3882.5567q-5.01,0-7.1065-1.7163a5.385,5.385,0,0,1-2.0966-4.3511C110.7979,29.9743,110.8037,29.7638,110.8164,29.5167Zm4.6572-11.5595A7.1027,7.1027,0,0,0,116.689,22.55a3.7568,3.7568,0,0,0,2.9965,1.4565,4.1421,4.1421,0,0,0,3.2286-1.4937,6.5118,6.5118,0,0,0,1.3173-4.4252,6.9022,6.9022,0,0,0-1.2617-4.5459,4.0106,4.0106,0,0,0-3.1914-1.4844,3.8493,3.8493,0,0,0-3.0893,1.4565A6.8294,6.8294,0,0,0,115.4736,17.9572Z" />
		<path class="fill-color-black" d="M134.5107,5.841V1.0167h5.2139V5.841Zm0,22.3769V8.5128h5.2139V28.2179Z" />
		<path class="fill-color-black" d="M148.7422,28.2179,142.5078,8.5128h5.0654l3.6924,12.9141,3.3955-12.9141H159.69l3.2841,12.9141L166.74,8.5128h5.14l-6.3272,19.7051h-5.01l-3.3955-12.6728-3.34,12.6728Z" />
		<path class="fill-color-black" d="M178.5225,14.5246l-4.7315-.8536a7.37,7.37,0,0,1,2.7461-4.23,10.051,10.051,0,0,1,5.7891-1.3731,12.48,12.48,0,0,1,5.1953.8257,5.186,5.186,0,0,1,2.4028,2.0967,10.7519,10.7519,0,0,1,.6958,4.6665l-.0556,6.0859a21.1268,21.1268,0,0,0,.25,3.8316,11.1609,11.1609,0,0,0,.9371,2.644h-5.1582q-.2044-.5193-.501-1.54-.13-.4637-.1856-.6123a9.3889,9.3889,0,0,1-2.8574,1.9482,8.1911,8.1911,0,0,1-3.2471.6494,6.714,6.714,0,0,1-4.7964-1.6513,5.4883,5.4883,0,0,1-1.7534-4.1748,5.6016,5.6016,0,0,1,.7979-2.9781,5.2105,5.2105,0,0,1,2.2358-2.0039,17.4888,17.4888,0,0,1,4.147-1.2153,28.3908,28.3908,0,0,0,5.0654-1.28v-.52a2.7,2.7,0,0,0-.7422-2.1431,4.4484,4.4484,0,0,0-2.8017-.64,3.7325,3.7325,0,0,0-2.1709.5473A3.8046,3.8046,0,0,0,178.5225,14.5246Zm6.9765,4.23a32.529,32.529,0,0,1-3.1728.7979,9.5636,9.5636,0,0,0-2.8389.9092,2.1736,2.1736,0,0,0-1.02,1.8369,2.5564,2.5564,0,0,0,.8164,1.8925,2.8478,2.8478,0,0,0,2.0781.7979,4.5152,4.5152,0,0,0,2.69-.9277,3.2657,3.2657,0,0,0,1.2431-1.7256,10.3085,10.3085,0,0,0,.2041-2.542Z" />
		<path class="fill-color-black" d="M213.6836,28.2179H208.47V18.1613a15.5431,15.5431,0,0,0-.334-4.1284,2.897,2.897,0,0,0-1.0854-1.4566,3.1034,3.1034,0,0,0-1.8091-.5195,4.1805,4.1805,0,0,0-2.4307.7422,3.7381,3.7381,0,0,0-1.4751,1.9668,16.9945,16.9945,0,0,0-.3989,4.5273v8.9248h-5.2138V8.5128h4.8427v2.8946a8.0754,8.0754,0,0,1,9.6485-2.7183,5.2929,5.2929,0,0,1,2.1616,1.5864,5.7568,5.7568,0,0,1,1.02,2.19,16.3062,16.3062,0,0,1,.2876,3.5068Z" />
		<path class="fill-color-black" d="M230.3828,21.9464l5.1953.8721a8.52,8.52,0,0,1-3.1635,4.3511,9.2926,9.2926,0,0,1-5.4087,1.4936q-5.14,0-7.6075-3.3584a11.282,11.282,0,0,1-1.9482-6.791q0-4.8984,2.5605-7.6724a8.433,8.433,0,0,1,6.4756-2.7739,8.7482,8.7482,0,0,1,6.94,2.9038q2.5414,2.9042,2.4306,8.897H222.7939a5.2739,5.2739,0,0,0,1.2618,3.6089,3.9445,3.9445,0,0,0,3.0058,1.29,3.1925,3.1925,0,0,0,2.06-.6679A4.1259,4.1259,0,0,0,230.3828,21.9464Zm.2969-5.27a5.0206,5.0206,0,0,0-1.169-3.4419,3.7626,3.7626,0,0,0-5.5293.0649,4.81,4.81,0,0,0-1.0947,3.377Z" />
		<path class="fill-color-black" d="M250.5146,8.5128h4.8614v2.8946a7.2777,7.2777,0,0,1,2.5605-2.4121,7.06,7.06,0,0,1,3.5811-.9278,7.514,7.514,0,0,1,5.8262,2.69q2.3936,2.691,2.3935,7.4961,0,4.9359-2.4121,7.6724a7.5154,7.5154,0,0,1-5.8447,2.7368,6.64,6.64,0,0,1-2.959-.6494,9.9506,9.9506,0,0,1-2.793-2.2266V35.714h-5.2139Zm5.1583,9.5186a7.5863,7.5863,0,0,0,1.3173,4.9077,4.0294,4.0294,0,0,0,3.21,1.5864,3.7682,3.7682,0,0,0,3.0244-1.4565q1.2056-1.4561,1.2061-4.7778a7.1269,7.1269,0,0,0-1.2432-4.6016,3.8459,3.8459,0,0,0-3.08-1.5029,3.9992,3.9992,0,0,0-3.1728,1.4751A6.5622,6.5622,0,0,0,255.6729,18.0314Z" />
		<path class="fill-color-black" d="M278.8662,28.2179h-5.2139V8.5128h4.8428v2.8018a8.4155,8.4155,0,0,1,2.2363-2.6162,4.11,4.11,0,0,1,2.254-.6309,6.6221,6.6221,0,0,1,3.4326.9834l-1.6143,4.5459a4.58,4.58,0,0,0-2.4492-.8535,2.8934,2.8934,0,0,0-1.8555.603,4.1223,4.1223,0,0,0-1.1972,2.18,31.0265,31.0265,0,0,0-.4356,6.6055Z" />
		<path class="fill-color-black" d="M286.5664,28.2179V24.1544l7.3848-8.4795q1.8179-2.0778,2.69-2.95-.91.0558-2.3936.0743l-6.958.0371V8.5128h16.2911v3.6924l-7.5332,8.6836-2.6534,2.876q2.1709-.13,2.69-.13h8.0712v4.583Z" />
		<path class="fill-color-black" d="M319.0742,21.9464l5.1953.8721a8.5182,8.5182,0,0,1-3.164,4.3511,9.29,9.29,0,0,1-5.4082,1.4936q-5.14,0-7.6075-3.3584a11.282,11.282,0,0,1-1.9482-6.791q0-4.8984,2.56-7.6724a8.433,8.433,0,0,1,6.4756-2.7739,8.7489,8.7489,0,0,1,6.94,2.9038q2.5414,2.9042,2.4307,8.897H311.4854a5.271,5.271,0,0,0,1.2617,3.6089,3.9445,3.9445,0,0,0,3.0058,1.29,3.1925,3.1925,0,0,0,2.06-.6679A4.1285,4.1285,0,0,0,319.0742,21.9464Zm.2969-5.27a5.0206,5.0206,0,0,0-1.169-3.4419,3.7625,3.7625,0,0,0-5.5292.0649,4.81,4.81,0,0,0-1.0948,3.377Z" />
		<path class="fill-color-black" d="M326.7,28.2179V24.1544l7.3848-8.4795q1.8179-2.0778,2.69-2.95-.91.0558-2.3936.0743l-6.958.0371V8.5128h16.291v3.6924l-7.5332,8.6836-2.6533,2.876q2.171-.13,2.69-.13H344.29v4.583Z" />
		<path class="fill-color-black" d="M489.8369,144.97a7.1872,7.1872,0,0,1-5.358-2.11,8.0088,8.0088,0,0,1,.021-10.785,7.8455,7.8455,0,0,1,10.719-.034,8.0259,8.0259,0,0,1-.021,10.796,7.2062,7.2062,0,0,1-5.361,2.133m.024-1.317a5.7522,5.7522,0,0,0,4.342-1.731,6.7454,6.7454,0,0,0-.033-8.91,6.2736,6.2736,0,0,0-8.676-.021,6.728,6.728,0,0,0,.034,8.898,5.75,5.75,0,0,0,4.333,1.764m2.299-2.211a1.3978,1.3978,0,0,1-1.229-.781l-1.361-1.944h-.804v1.72q0,.9615-.915.961h-.29c-.596,0-.895-.396-.895-1.184v-5.539q0-1.16,1.095-1.16h2.389q3.261,0,3.26,2.523a2.1576,2.1576,0,0,1-1.831,2.299l1.787,2.345c.029.045-.008.127-.112.246a1.6684,1.6684,0,0,1-.47.347,1.3188,1.3188,0,0,1-.624.167m-3.439-6.297v2.032h1.317c.85,0,1.273-.335,1.273-1.005q0-1.026-1.318-1.027Z" />
	</g>
</svg>