<svg height='100px' width='100px'  fill="#000000" xmlns="http://www.w3.org/2000/svg" xmlns:xlink="http://www.w3.org/1999/xlink" xml:space="preserve" version="1.1" style="shape-rendering:geometricPrecision;text-rendering:geometricPrecision;image-rendering:optimizeQuality;" viewBox="0 0 537.98 581.59" x="0px" y="0px" fill-rule="evenodd" clip-rule="evenodd"><defs><style type="text/css">
   
  </style></defs><g><path class="fil0" d="M268.99 117.1c83.82,0 151.89,68.08 151.89,151.89 0,30.13 -8.86,59.33 -25.62,84.37 -12.99,19.42 -22.88,38.62 -30.11,58.67 -7.24,20.07 -11.91,41.19 -14.5,64.44 -0.54,4.97 -4.77,8.66 -9.66,8.66l-143.99 0.02c-5.22,0 -9.5,-4.13 -9.73,-9.29 -2.6,-23.01 -7.25,-43.94 -14.43,-63.83 -7.23,-20.05 -17.12,-39.25 -30.11,-58.67 -16.73,-24.99 -25.62,-54.3 -25.62,-84.37 0,-83.82 68.05,-151.89 151.88,-151.89zm-24.25 348.56l-27.61 -152.35c-1.67,-9.37 9.78,-15.2 16.41,-8.54l35.46 35.45 35.45 -35.46c6.83,-6.87 18.37,-0.49 16.36,8.89l-27.55 152.01 39.14 0c2.91,-21.33 7.61,-41.12 14.49,-60.18 7.79,-21.61 18.38,-42.2 32.25,-62.93 14.64,-21.89 22.26,-47.24 22.26,-73.57 0,-73.2 -59.21,-132.41 -132.41,-132.41 -73.15,0 -132.4,59.25 -132.4,132.41 0,26.26 7.65,51.74 22.26,73.57 13.87,20.73 24.46,41.32 32.25,62.93 6.88,19.06 11.58,38.85 14.49,60.18l39.15 0zm28.82 0l22.7 -125.27 -20.38 20.39c-3.83,3.81 -9.99,3.79 -13.76,0l-20.38 -20.39 22.7 125.27 9.12 0z"></path><path class="fil0" d="M259.25 9.74c0,-5.37 4.37,-9.74 9.74,-9.74 5.37,0 9.74,4.37 9.74,9.74l0 71.08c0,5.37 -4.37,9.74 -9.74,9.74 -5.37,0 -9.74,-4.37 -9.74,-9.74l0 -71.08z"></path><path class="fil0" d="M445.42 78.79c3.79,-3.79 9.97,-3.79 13.76,0 3.79,3.79 3.79,9.97 0,13.76l-50.25 50.26c-3.79,3.79 -9.97,3.79 -13.76,0 -3.79,-3.79 -3.79,-9.97 0,-13.76l50.25 -50.26z"></path><path class="fil0" d="M528.24 259.25c5.37,0 9.74,4.37 9.74,9.74 0,5.37 -4.37,9.74 -9.74,9.74l-71.08 0c-5.37,0 -9.74,-4.37 -9.74,-9.74 0,-5.37 4.37,-9.74 9.74,-9.74l71.08 0z"></path><path class="fil0" d="M459.18 445.42c3.79,3.79 3.79,9.97 0,13.76 -3.79,3.79 -9.97,3.79 -13.76,0l-50.25 -50.26c-3.79,-3.79 -3.79,-9.97 0,-13.76 3.79,-3.79 9.97,-3.79 13.76,0l50.25 50.26z"></path><path class="fil0" d="M78.8 92.55c-3.79,-3.79 -3.79,-9.97 0,-13.76 3.79,-3.79 9.97,-3.79 13.76,0l50.25 50.26c3.79,3.79 3.79,9.97 0,13.76 -3.79,3.79 -9.97,3.79 -13.76,0l-50.25 -50.26z"></path><path class="fil0" d="M9.74 278.72c-5.37,0 -9.74,-4.37 -9.74,-9.74 0,-5.37 4.37,-9.74 9.74,-9.74l71.08 0c5.37,0 9.74,4.37 9.74,9.74 0,5.37 -4.37,9.74 -9.74,9.74l-71.08 0z"></path><path class="fil0" d="M92.56 459.18c-3.79,3.79 -9.97,3.79 -13.76,0 -3.79,-3.79 -3.79,-9.97 0,-13.76l50.25 -50.26c3.79,-3.79 9.97,-3.79 13.76,0 3.79,3.79 3.79,9.97 0,13.76l-50.25 50.26z"></path><path class="fil0" d="M197 517.29c-5.37,0 -9.74,-4.37 -9.74,-9.74 0,-5.37 4.37,-9.74 9.74,-9.74l143.99 0c5.37,0 9.74,4.37 9.74,9.74 0,5.37 -4.37,9.74 -9.74,9.74l-143.99 0z"></path><path class="fil0" d="M197 549.44c-5.37,0 -9.74,-4.37 -9.74,-9.74 0,-5.37 4.37,-9.74 9.74,-9.74l143.99 0c5.37,0 9.74,4.37 9.74,9.74 0,5.37 -4.37,9.74 -9.74,9.74l-143.99 0z"></path><path class="fil0" d="M211.17 581.59c-5.37,0 -9.74,-4.37 -9.74,-9.74 0,-5.37 4.37,-9.74 9.74,-9.74l115.65 0c5.37,0 9.74,4.37 9.74,9.74 0,5.37 -4.37,9.74 -9.74,9.74l-115.65 0z"></path></g></svg>