<?xml version="1.0" encoding="UTF-8"?><svg version="1.1" viewBox="90 200 320 100" xmlns="http://www.w3.org/2000/svg" xmlns:xlink="http://www.w3.org/1999/xlink"><g transform="matrix(2.85714 0 0 2.85714 0 227.143)"><path fill="#9C9C9C" fill-rule="evenodd" d="M128.789 4.79395c-.738 0-1.766.522-2.056 1.33333h-.058v-1.22467h-1.275v7.09729h1.333v-3.81595c0-1.304.927-2.07134 1.839-2.07134 .29 0 .522.02867.71.10134l.507-1.24534c-.275-.116-.565-.17466-1-.17466Z"></path><path fill="#9C9C9C" fill-rule="evenodd" d="M152.801 1.4606h1.332v10.5393h-1.332v-10.5393Z"></path><path fill="#9C9C9C" fill-rule="evenodd" d="M148.658 4.79395c-1.433 0-2.767.80066-2.767 2.05066 0 1.20867 1.209 1.756 1.841 1.91067l1.432.33733c.731.18267.982.562.982.91329 0 .5754-.617.952-1.418.952 -.829 0-1.544-.404-1.909-1.29329l-1.152.47799c.407 1.0007 1.39 1.9847 3.048 1.9847 1.615 0 2.752-.9414 2.752-2.16335 0-.84334-.575-1.686-1.938-2.00934l-1.404-.32333c-.548-.126-.912-.36467-.912-.80067 0-.562.672-.86733 1.403-.86733 .674 0 1.347.26733 1.615.91333l1.123-.46333c-.421-1.054-1.502-1.61933-2.696-1.61933Z"></path><path fill="#9C9C9C" fill-rule="evenodd" d="M158.579 10.9286c-.675 0-1.508-.3473-1.508-1.07732 0-.632.608-1.32267 1.971-1.32267 1.096 0 1.625.40934 1.625.40934 0 1.12395-1.063 1.99065-2.088 1.99065Zm.28-6.13465c-1.728 0-2.701 1.006-2.94 1.638l1.18.506c.239-.646 1.072-.946 1.788-.946 .97 0 1.78.602 1.78 1.69333v.19733c-.268-.15466-.922-.422-1.85-.422 -1.615 0-3.116.80334-3.116 2.36267 0 1.43262 1.262 2.30402 2.666 2.30402 1.181 0 1.864-.636 2.244-1.212h.056v1.0846h1.255v-4.25595c0-1.93867-1.377-2.95-3.063-2.95Z"></path><path fill="#9C9C9C" fill-rule="evenodd" d="M133.323 10.9286c-.674 0-1.508-.3473-1.508-1.07732 0-.632.609-1.32267 1.972-1.32267 1.095 0 1.624.40934 1.624.40934 0 1.12395-1.062 1.99065-2.088 1.99065Zm.281-6.13465c-1.728 0-2.702 1.006-2.941 1.638l1.18.506c.24-.646 1.072-.946 1.789-.946 .969 0 1.779.602 1.779 1.69333v.19733c-.267-.15466-.922-.422-1.85-.422 -1.615 0-3.115.80334-3.115 2.36267 0 1.43262 1.261 2.30402 2.666 2.30402 1.18 0 1.863-.636 2.243-1.212h.056v1.0846h1.256v-4.25595c0-1.93867-1.377-2.95-3.063-2.95Z"></path><path fill="#9C9C9C" fill-rule="evenodd" d="M169.398 7.62328c.257-1.00333 1.027-1.63133 1.998-1.63133 1.498 0 2.011 1.03533 2.054 1.63133h-4.052Zm2.026-2.82933c-2.054 0-3.424 1.71333-3.424 3.66666 0 2.07929 1.427 3.66669 3.567 3.66669 1.612 0 2.64-.8994 3.053-1.8827l-1.17-.47732c-.371.87132-1.141 1.16132-1.912 1.16132 -1.084 0-2.154-.768-2.225-2.22132h5.521c0 0 .015-.14867.015-.24667 0-2.22-1.342-3.66666-3.425-3.66666Z"></path><path fill="#9C9C9C" fill-rule="evenodd" d="M141.778 4.79395c-.971 0-1.869.56466-2.245 1.216h-.058v-1.10734h-1.275v7.09729h1.333v-3.80262c0-1.086.71-2.18733 1.868-2.18733 1.014 0 1.753.49266 1.753 1.97v4.01995h1.333v-4.22195c0-1.75267-.898-2.984-2.709-2.984Z"></path><path fill="#9C9C9C" fill-rule="evenodd" d="M165.399 2.79395h-1.332v2.10866h-1.246v1.22734h1.246v3.72333c0 1.44862.796 2.27402 2.288 2.27402 .449 0 .768-.058 1.072-.188l-.463-1.1447c-.189.0867-.363.116-.609.116 -.622 0-.956-.362-.956-1.15932v-3.62133h1.738v-1.22734h-1.738v-2.10866Z"></path><path fill="#9C9C9C" fill-rule="evenodd" d="M124.95 1.4606h-7.217v1.36667h2.934v9.16663h1.35v-9.16663h2.933v-1.36667Z"></path><path fill="#9C9C9C" fill-rule="evenodd" d="M72.16 5.58594v1.63867h3.922c-.1173.922-.4246 1.59533-.8926 2.06333 -.5714.57067-1.464 1.19996-3.0294 1.19996 -2.4153 0-4.3026-1.94596-4.3026-4.36063 0-2.41466 1.8873-4.36066 4.3026-4.36066 1.302 0 2.2534.512 2.956 1.17066l1.156-1.15666c-.9806-.936003-2.2826-1.65334-4.112-1.65334 -3.3073-1.11022e-16-6.088 2.69267-6.088 6 0 3.30734 2.7807 6.00003 6.088 6.00003 1.7847 0 3.1314-.5854 4.1854-1.6827 1.0826-1.08333 1.4193-2.60533 1.4193-3.83466 0-.38-.0293-.73133-.088-1.024h-5.5167Z"></path><path fill="#9C9C9C" fill-rule="evenodd" d="M82.6666 4.25461c-2.1413 0-3.8873 1.62867-3.8873 3.87266 0 2.22933 1.746 3.87263 3.8873 3.87263 2.142 0 3.8874-1.6433 3.8874-3.87263 0-2.24399-1.7454-3.87266-3.8874-3.87266Zm0 6.21929c-1.1733 0-2.186-.96796-2.186-2.34663 0-1.39333 1.0127-2.34733 2.186-2.34733 1.1734 0 2.186.954 2.186 2.34733 0 1.37867-1.0126 2.34663-2.186 2.34663Z"></path><path fill="#9C9C9C" fill-rule="evenodd" d="M101.72 5.12061h-.059c-.382-.45533-1.115-.866-2.039-.866 -1.936 0-3.622 1.68666-3.622 3.87266 0 2.17063 1.686 3.87263 3.622 3.87263 .924 0 1.657-.4106 2.039-.88h.059v.5414c0 1.4813-.792 2.2733-2.0687 2.2733 -1.0413 0-1.6866-.748-1.9506-1.3787l-1.4814.616c.4254 1.0267 1.5547 2.2887 3.432 2.2887 1.9957 0 3.6817-1.1733 3.6817-4.034v-6.97266h-1.613v.66667Zm-1.9507 5.35329c-1.1733 0-2.0673-.99729-2.0673-2.34663 0-1.36399.894-2.34733 2.0673-2.34733 1.1597 0 2.0677.998 2.0677 2.362 0 1.34933-.908 2.33196-2.0677 2.33196Z"></path><path fill="#9C9C9C" fill-rule="evenodd" d="M91.3334 4.25461c-2.1414 0-3.8874 1.62867-3.8874 3.87266 0 2.22933 1.746 3.87263 3.8874 3.87263 2.142 0 3.8873-1.6433 3.8873-3.87263 0-2.24399-1.7453-3.87266-3.8873-3.87266Zm0 6.21929c-1.1734 0-2.1854-.96796-2.1854-2.34663 0-1.39333 1.012-2.34733 2.1854-2.34733 1.1733 0 2.186.954 2.186 2.34733 0 1.37867-1.0127 2.34663-2.186 2.34663Z"></path><path fill="#9C9C9C" fill-rule="evenodd" d="M104.667.287277h1.673v11.7126h-1.673v-11.7126Z"></path><path fill="#9C9C9C" fill-rule="evenodd" d="M111.51 10.4739c-.865 0-1.481-.3953-1.878-1.17263l5.178-2.14199 -.176-.44001c-.323-.86533-1.305-2.46466-3.315-2.46466 -1.995 0-3.652 1.57-3.652 3.87266 0 2.17133 1.642 3.87263 3.843 3.87263 1.775 0 2.801-1.0853 3.227-1.7166l-1.32-.88002c-.44.64602-1.042 1.07062-1.907 1.07062Zm-.126-4.76796c.689 0 1.272.35067 1.467.854l-3.498 1.45c0-1.63267 1.155-2.304 2.031-2.304Z"></path><path fill="#9C9C9C" d="M6.17578 8.90039c0 .96484-.2207 1.74221-.66211 2.33201 -.4414.5899-1.03906.8848-1.79297.8848 -.76953 0-1.375-.2442-1.8164-.7324v3.0527h-1.08399v-8.77734h.990238l.05273.70312c.44141-.54687 1.05469-.82031 1.83984-.82031 .76172 0 1.36329.28711 1.80469.86133 .44531.57422.66797 1.37304.66797 2.39648v.09961Zm-1.08398-.12305c0-.71484-.15235-1.27929-.45703-1.69336 -.30469-.41406-.72266-.62109-1.25391-.62109 -.65625 0-1.14844.29102-1.47656.87305v3.02926c.32422.5782.82031.8672 1.48828.8672 .51953 0 .93164-.2051 1.23633-.6152 .30859-.4141.46289-1.02736.46289-1.83986Z"></path><path fill="#9C9C9C" d="M7.27148 8.77148c0-.62109.1211-1.17968.36329-1.67578 .24609-.49609.58593-.8789 1.01953-1.14843 .4375-.26954.93554-.4043 1.4941-.4043 .8633 0 1.5606.29883 2.0918.89648 .5352.59766.8028 1.39258.8028 2.38477v.07617c0 .61719-.1192 1.17191-.3575 1.66411 -.2343.4882-.5722.8691-1.0136 1.1425 -.4375.2735-.9414.4102-1.5117.4102 -.85942 0-1.55668-.2988-2.09184-.8965 -.53125-.5977-.79688-1.38867-.79688-2.37304v-.07618Zm1.08985.12891c0 .70313.16211 1.26761.48633 1.69341 .32812.4257.76562.6386 1.31254.6386 .5507 0 .9882-.2148 1.3125-.6445 .3242-.4336.4863-1.03907.4863-1.81642 0-.69531-.166-1.25781-.4981-1.6875 -.3281-.43359-.7656-.65039-1.3125-.65039 -.53512 0-.96676.21289-1.29488.63868 -.32813.42578-.49219 1.03515-.49219 1.82812Z"></path><path fill="#9C9C9C" d="M20.0156 10.5059l1.2188-4.84574h1.084l-1.8457 6.33984h-.8789l-1.5411-4.80469 -1.5 4.80469h-.8789l-1.8398-6.33984h1.0781l1.2481 4.74604 1.4765-4.74604h.8731l1.5058 4.84574Z"></path><path fill="#9C9C9C" d="M26.0566 12.1172c-.8593 0-1.5586-.2813-2.0976-.8438 -.5391-.5664-.8086-1.32223-.8086-2.26754v-.19922c0-.62891.1191-1.18945.3574-1.68164 .2422-.49609.5781-.88281 1.0078-1.16016 .4336-.28125.9024-.42187 1.4063-.42187 .8242 0 1.4648.27148 1.9219.81445 .457.54297.6855 1.32031.6855 2.33203v.45117h-4.2949c.0156.625.1972 1.13088.5449 1.51758 .3516.3828.7969.5742 1.3359.5742 .3828 0 .7071-.0781.9727-.2344 .2656-.1562.498-.3632.6973-.621l.6621.5156c-.5313.8164-1.3282 1.2246-2.3907 1.2246Zm-.1347-5.68361c-.4375 0-.8047.16016-1.1016.48047 -.2969.31641-.4805.76172-.5508 1.33594h3.1758v-.08203c-.0312-.55078-.1797-.97656-.4453-1.27735 -.2656-.30468-.625-.45703-1.0781-.45703Z"></path><path fill="#9C9C9C" d="M32.8535 6.63281c-.164-.02734-.3418-.04101-.5332-.04101 -.7109 0-1.1933.30273-1.4473.9082v4.5h-1.0839v-6.33984h1.0547l.0175.73242c.3555-.56641.8594-.84961 1.5117-.84961 .211 0 .3711.02734.4805.08203v1.00781Z"></path><path fill="#9C9C9C" d="M36.3691 12.1172c-.8593 0-1.5586-.2813-2.0976-.8438 -.5391-.5664-.8086-1.32223-.8086-2.26754v-.19922c0-.62891.1191-1.18945.3574-1.68164 .2422-.49609.5781-.88281 1.0078-1.16016 .4336-.28125.9024-.42187 1.4063-.42187 .8242 0 1.4648.27148 1.9218.81445 .4571.54297.6856 1.32031.6856 2.33203v.45117h-4.2949c.0156.625.1972 1.13088.5449 1.51758 .3516.3828.7969.5742 1.3359.5742 .3828 0 .7071-.0781.9727-.2344 .2656-.1562.498-.3632.6973-.621l.6621.5156c-.5313.8164-1.3282 1.2246-2.3907 1.2246Zm-.1347-5.68361c-.4375 0-.8047.16016-1.1016.48047 -.2969.31641-.4805.76172-.5508 1.33594h3.1758v-.08203c-.0312-.55078-.1797-.97656-.4453-1.27735 -.2656-.30468-.625-.45703-1.0781-.45703Z"></path><path fill="#9C9C9C" d="M39.8379 8.77734c0-.97265.2305-1.7539.6914-2.34375 .4609-.59375 1.0645-.89062 1.8105-.89062 .7422 0 1.3301.25391 1.7637.76172v-3.30469h1.084v9h-.9961l-.0527-.6797c-.4336.5313-1.0371.7969-1.8106.7969 -.7343 0-1.334-.3008-1.7988-.9024 -.4609-.6015-.6914-1.38668-.6914-2.35542v-.08204Zm1.084.12305c0 .71875.1484 1.28121.4453 1.68751 .2969.4062.707.6094 1.2305.6094 .6875 0 1.1894-.3086 1.5058-.9258v-2.91212c-.3242-.59766-.8223-.89649-1.4941-.89649 -.5313 0-.9453.20508-1.2422.61523 -.2969.41016-.4453 1.01758-.4453 1.82227Z"></path><path fill="#9C9C9C" d="M55.2188 8.90039c0 .96875-.2227 1.74801-.668 2.33791 -.4453.5859-1.043.8789-1.793.8789 -.8008 0-1.4199-.2832-1.8574-.8496l-.0527.7324h-.9961v-9h1.0839v3.35742c.4375-.54297 1.0411-.81445 1.8106-.81445 .7695 0 1.373.29101 1.8105.87305 .4414.58203.6622 1.3789.6622 2.39062v.09375Zm-1.084-.12305c0-.73828-.1426-1.30859-.4278-1.71093 -.2851-.40235-.6953-.60352-1.2304-.60352 -.7149 0-1.2286.33203-1.5411.99609v2.74222c.3321.664.8497.9961 1.5528.9961 .5195 0 .9238-.2012 1.2129-.6035 .289-.4024.4336-1.00786.4336-1.81646Z"></path><path fill="#9C9C9C" d="M58.5938 10.4121l1.4765-4.75194h1.1602l-2.5489 7.31834c-.3945 1.0547-1.0214 1.582-1.8808 1.582l-.2051-.0175 -.4043-.0762v-.8789l.293.0234c.3672 0 .6523-.0742.8554-.2226 .2071-.1485.377-.4199.5098-.8145l.2402-.6445 -2.2617-6.26954h1.1836l1.5821 4.75194Z"></path></g></svg>