<svg id="Layer_1" data-name="Layer 1" xmlns="http://www.w3.org/2000/svg" xmlns:xlink="http://www.w3.org/1999/xlink" viewBox="0 0 507.937 145.089">
	<style type="text/css">
    .fill-color-black {
      fill: #000000;
    }
  </style>
  <g>
		<path class="fill-color-black" d="M444.4915,51.2521c-12.643,0-23.474,6.899-31.927,16.594-4.414-11.027-12.949-16.594-25.186-16.594-12.662,0-21.694,7.784-29.723,16.411V51.2061l-36.06-.018v93.9h36.06V87.1621a18.0377,18.0377,0,0,1,10.829-3.822c5.831,0,10.234,2.817,10.234,11.645v50.103h36.052V87.2311a18.1549,18.1549,0,0,1,10.86-3.817c5.806,0,10.231,2.811,10.231,11.638v50.036h36.06V83.5771c0-19.889-8.751-32.325-27.43-32.325" />
		<path class="fill-color-black" d="M258.7473,38.88a53.0276,53.0276,0,0,0-52.783,48.045,29.2463,29.2463,0,1,0,18.288,45.238,53.0282,53.0282,0,1,0,34.495-93.283m-58.588,86.504a9.789,9.789,0,1,1,9.801-9.793,9.7886,9.7886,0,0,1-9.801,9.793m58.588-12.331a21.1335,21.1335,0,1,1,21.127-21.121,21.1184,21.1184,0,0,1-21.127,21.121" />
		<path class="fill-color-black" d="M194.2532,74.6066V51.1936s-23.336-1.795-35.488,16.697V51.1016l-36.002.079V145.05h36.002v-28.533c0-17.639,11.486-38.046,35.488-41.91" />
		<polygon class="fill-color-black" points="57.339 101.243 38.287 51.181 0 51.181 40.109 145.05 74.624 145.05 114.745 51.181 76.452 51.181 57.339 101.243" />
		<path class="fill-color-black" d="M384.2822,33.2184h-1.8261a5.1264,5.1264,0,0,0-1.2784.1289q-.4833.1289-.4834.3652,0,.129,1.0528.5371T382.8,35.5172a14.0075,14.0075,0,0,1-.3545,2.8467,13.8987,13.8987,0,0,1-.9775,2.9971,6.7611,6.7611,0,0,1-2.6426,2.3633,24.3247,24.3247,0,0,1-5.2637,2.3632,21.12,21.12,0,0,1-6.4023,1.0743,7.6145,7.6145,0,0,1-5.2637-1.6114,6.0152,6.0152,0,0,1-1.7832-4.705,18.9558,18.9558,0,0,1,.8164-5.8868,38.703,38.703,0,0,1,4.0391-7.8632l1.2031.9023a36.8534,36.8534,0,0,0-2.7715,5.4785,11.5583,11.5583,0,0,0-.7519,4.0176,3.9732,3.9732,0,0,0,1.2675,3.1152,5.0524,5.0524,0,0,0,3.502,1.1387,22.8024,22.8024,0,0,0,5.8652-.8379,23.509,23.509,0,0,0,4.8662-1.8154q2.03-1.0635,2.03-1.751,0-.2147-1.2031-.2578t-2.1485-.043a15.1783,15.1783,0,0,1-2.9433-.1719.7706.7706,0,0,1-.666-.7949,7.9276,7.9276,0,0,1,.4189-2.4492,5.8973,5.8973,0,0,1,.999-1.9766,13.6886,13.6886,0,0,1,3.3516-2.9218,7.5591,7.5591,0,0,1,3.8887-1.3536h2.4062Z" />
		<path class="fill-color-black" d="M396.2275,33.2184H382.7783V27.3746h11.3008a6.7265,6.7265,0,0,0-.8594-2.4707,16.1138,16.1138,0,0,0-1.5039-1.9335l1.7188-5.1133a10.1522,10.1522,0,0,1,2.2021,3.8242,22.33,22.33,0,0,1,.5908,5.93ZM395.583,13.84a2.2925,2.2925,0,0,1-.5156,1.01,1.7432,1.7432,0,0,1-.7305.3867l-4.6406,1.4179a4.3117,4.3117,0,0,1,.7519-1.0634A3.6992,3.6992,0,0,1,391.5654,15a3.6741,3.6741,0,0,1-.87-.72,1.0459,1.0459,0,0,1-.2685-.6553,1.4728,1.4728,0,0,1,.1718-.6337,3.5872,3.5872,0,0,1,.4512-.6983q1.3961-1.8692,2.7715-1.8691a.85.85,0,0,1,.6553.2685.9948.9948,0,0,1,.247.6983,1.62,1.62,0,0,1-.0966.5908,5.424,5.424,0,0,1-.3975.7412,4.2627,4.2627,0,0,0-1.4609-.5371,1.7149,1.7149,0,0,0-.7735.1934,1.8027,1.8027,0,0,0-.4726.3437q0,.28,1.0312.8594a3.6853,3.6853,0,0,0,1.4824.58A9.84,9.84,0,0,0,395.583,13.84Z" />
		<path class="fill-color-black" d="M406.54,33.2184h-3.0078a3.8191,3.8191,0,0,1-3.6308-2.0625q-1.2467-2.2772-1.2461-7.67V17.3629a7.3862,7.3862,0,0,0-.58-3.2441,7.8684,7.8684,0,0,0-1.2891-1.6113l2.32-5.3711a11.2866,11.2866,0,0,1,1.74,3.3945,17.89,17.89,0,0,1,.58,4.9844v4.2324a21.7678,21.7678,0,0,0,.6015,6.2305q.4717,1.3967,1.5039,1.3964H406.54Z" />
		<path class="fill-color-black" d="M418.4854,33.2184H405.0361V27.3746h11.3008a6.7265,6.7265,0,0,0-.8594-2.4707,16.1138,16.1138,0,0,0-1.5039-1.9335l1.7188-5.1133a10.1522,10.1522,0,0,1,2.2021,3.8242,22.33,22.33,0,0,1,.5909,5.93Zm-2.1915,4.5332-2.5781,4.8125-4.9844-2.707,2.5782-4.8985Z" />
		<path class="fill-color-black" d="M444.0947,14.3336H432.4072V11.5407h1.375a4.24,4.24,0,0,0,1.375-.8379q.4718-.3435,1.0957-.8594a18.3875,18.3875,0,0,0-.3867-3.9316q-.0219-.0858-.5586-2.2344l-.6015-.3653a15.3735,15.3735,0,0,1,.9882-3.0078l.4727.1934a.7931.7931,0,0,0-.043.2578q0,.3655,1.01.8594.2358.1077,1.01.4082a8.4977,8.4977,0,0,1-.3223,1.5039q-.1085.3011-.4082,1.0742l-.3652-.1289a19.4912,19.4912,0,0,1,.5371,3.3731v.1289a5.0911,5.0911,0,0,1-.1075.9882q.8379-.6225,2.5567-1.7187a3.0887,3.0887,0,0,1,1.31-.4727q2.75,0,2.75,2.6641Zm1.6973,18.8848H436.06a3.4024,3.4024,0,0,1-2.17-.6016,2.8581,2.8581,0,0,1-.9238-2.3847q0-.9448.0967-2.041t.29-2.2129l.8164-.043a1.611,1.611,0,0,0,.7627,1.0957,2.7917,2.7917,0,0,0,1.4288.3437h7.3906a8.4711,8.4711,0,0,0-1.7188-3.5449,6.27,6.27,0,0,0-2.8144-2.0625l1.5468-6.7031a9.0547,9.0547,0,0,1,3.9532,4.7266,17.2075,17.2075,0,0,1,1.0742,6.5312Zm-3.1152-22.709q0-.6014-.7735-.8379a4.3779,4.3779,0,0,0-1.31-.15q-1.2891,0-3.9746,2.02h2.6855Q442.6759,11.5407,442.6768,10.5094Z" />
		<path class="fill-color-black" d="M464.8271,33.7125a6.7757,6.7757,0,0,1-1.5039,3.47,17.41,17.41,0,0,1-3.5234,3.749,6.6764,6.6764,0,0,1-3.8242,1.7617,9.2075,9.2075,0,0,1-4.0606-1.0742,53.1855,53.1855,0,0,1-5.9082-3.6953l.9024-1.3321a17.1,17.1,0,0,0,3.1152,1.74,7.1041,7.1041,0,0,0,2.5567.4512,5.9794,5.9794,0,0,0,2.9648-.8379A26.1923,26.1923,0,0,0,459.585,34.83q3.5654-3.1794,3.5664-4.8984a5.4948,5.4948,0,0,0-.6875-2.2559,8.9987,8.9987,0,0,0-1.8907-2.6425l1.2032-5.8008a10.7157,10.7157,0,0,1,2.2558,3.459,11.7391,11.7391,0,0,1,.7949,4.4472Z" />
		<path class="fill-color-black" d="M484.6787,31.736a11.1479,11.1479,0,0,1-3.1367,7.3047q-3.1377,3.6093-6.1875,3.6093a8.3281,8.3281,0,0,1-3.8994-1.1386,56.3883,56.3883,0,0,1-6.499-4.49l.9023-1.2461a18.1472,18.1472,0,0,0,3.8027,2.0625,8.355,8.355,0,0,0,6.8965-.73,19.483,19.483,0,0,0,4.9844-4.4258,10.997,10.997,0,0,1-1.5039.1289,4.3428,4.3428,0,0,1-3.3838-1.3857,5.402,5.402,0,0,1-1.2568-3.7706A13.7988,13.7988,0,0,1,476.88,21.445q1.6113-3.2439,3.6738-3.2442,1.7183,0,2.9219,2.3418a12.2448,12.2448,0,0,1,1.2031,5.65Zm-2.5781-4.3614q-.6021-3.4584-2.4492-3.4589a1.2652,1.2652,0,0,0-1.0635.5263,1.8639,1.8639,0,0,0-.3975,1.1494,1.4741,1.4741,0,0,0,.8487,1.2784,4.3563,4.3563,0,0,0,2.2451.5048Z" />
		<path class="fill-color-black" d="M494.9912,33.2184h-3.0078a3.8194,3.8194,0,0,1-3.6309-2.0625q-1.2465-2.2772-1.2461-7.67V17.3629a7.3863,7.3863,0,0,0-.58-3.2441,7.872,7.872,0,0,0-1.2891-1.6113l2.32-5.3711a11.2866,11.2866,0,0,1,1.74,3.3945,17.89,17.89,0,0,1,.58,4.9844v4.2324a21.7631,21.7631,0,0,0,.6016,6.2305q.4716,1.3967,1.5039,1.3964h3.0078Z" />
		<path class="fill-color-black" d="M506.9365,33.2184H493.4873V27.3746h11.3008a6.7265,6.7265,0,0,0-.8594-2.4707,16.1138,16.1138,0,0,0-1.5039-1.9335l1.7188-5.1133a10.1522,10.1522,0,0,1,2.2021,3.8242,22.33,22.33,0,0,1,.5908,5.93ZM506.5928,37l-2.2344,4.168-3.18-1.59-1.8047,3.48-3.91-2.1914,2.3632-4.3828,3.0508,1.7188,1.7188-3.3946Zm-.7735,6.6387-2.1914,4.3828-3.9961-2.0625L501.78,41.49Z" />
		<path class="fill-color-black" d="M489.3311,144.7349a7.191,7.191,0,0,1-5.358-2.11,8.0088,8.0088,0,0,1,.021-10.785,7.8455,7.8455,0,0,1,10.719-.034,7.3283,7.3283,0,0,1,2.076,5.381,7.4025,7.4025,0,0,1-2.097,5.415,7.2062,7.2062,0,0,1-5.361,2.133m.024-1.317a5.7529,5.7529,0,0,0,4.342-1.732,6.7441,6.7441,0,0,0-.033-8.909,6.271,6.271,0,0,0-8.676-.021,6.7267,6.7267,0,0,0,.034,8.897,5.7468,5.7468,0,0,0,4.333,1.765m2.299-2.211a1.4008,1.4008,0,0,1-1.229-.781l-1.361-1.944h-.804v1.72q0,.96-.915.96h-.29q-.894,0-.895-1.183V134.44q0-1.16,1.095-1.16h2.389q3.261,0,3.26,2.523a2.1576,2.1576,0,0,1-1.831,2.299l1.787,2.345c.03.045-.008.126-.112.246a1.6878,1.6878,0,0,1-.47.347,1.3188,1.3188,0,0,1-.624.167m-3.439-6.297v2.032h1.317c.85,0,1.273-.335,1.273-1.006q0-1.0245-1.318-1.026Z" />
	</g>
</svg>