<svg id="Layer_1" data-name="Layer 1" xmlns="http://www.w3.org/2000/svg" xmlns:xlink="http://www.w3.org/1999/xlink"  viewBox="0 0 507.937 145.089">
	<style type="text/css">
    .fill-color-vroom {
      fill: #F6901E;
    }
  </style>
	<g>
		<path class="fill-color-vroom" d="M444.4915,51.2521c-12.643,0-23.474,6.899-31.927,16.594-4.414-11.027-12.949-16.594-25.186-16.594-12.662,0-21.694,7.784-29.723,16.411V51.2061l-36.06-.018v93.9h36.06V87.1621a18.0377,18.0377,0,0,1,10.829-3.822c5.831,0,10.234,2.817,10.234,11.645v50.103h36.052V87.2311a18.1549,18.1549,0,0,1,10.86-3.817c5.806,0,10.231,2.811,10.231,11.638v50.036h36.06V83.5771c0-19.889-8.751-32.325-27.43-32.325" />
		<path class="fill-color-vroom" d="M258.7473,38.88a53.0276,53.0276,0,0,0-52.783,48.045,29.2463,29.2463,0,1,0,18.288,45.238,53.0282,53.0282,0,1,0,34.495-93.283m-58.588,86.504a9.789,9.789,0,1,1,9.801-9.793,9.7886,9.7886,0,0,1-9.801,9.793m58.588-12.331a21.1335,21.1335,0,1,1,21.127-21.121,21.1184,21.1184,0,0,1-21.127,21.121" />
		<path class="fill-color-vroom" d="M194.2532,74.6066V51.1936s-23.336-1.795-35.488,16.697V51.1016l-36.002.079V145.05h36.002v-28.533c0-17.639,11.486-38.046,35.488-41.91" />
		<polygon class="fill-color-vroom" points="57.339 101.243 38.287 51.181 0 51.181 40.109 145.05 74.624 145.05 114.745 51.181 76.452 51.181 57.339 101.243" />
		<path class="fill-color-vroom" d="M3.9746,32.0817V2.0172h6.07V13.85H21.94V2.0172h6.07V32.0817H21.94V18.9362H10.0449V32.0817Z" />
		<path class="fill-color-vroom" d="M38.5508,16.9469l-5.23-.9433a8.1453,8.1453,0,0,1,3.0351-4.6758Q38.51,9.81,42.7549,9.81a13.7894,13.7894,0,0,1,5.7422.9126A5.7272,5.7272,0,0,1,51.1528,13.04q.7691,1.4047.7691,5.1577L51.86,24.9245a23.3512,23.3512,0,0,0,.2768,4.2348,12.3613,12.3613,0,0,0,1.0357,2.9224H47.4717q-.2256-.5742-.5537-1.7022-.1435-.5127-.2051-.6767a10.39,10.39,0,0,1-3.1582,2.1533,9.0459,9.0459,0,0,1-3.5889.7178,7.421,7.421,0,0,1-5.3012-1.8252,6.0669,6.0669,0,0,1-1.938-4.6143,6.1937,6.1937,0,0,1,.8818-3.2915A5.7615,5.7615,0,0,1,36.08,20.6281a19.3129,19.3129,0,0,1,4.5835-1.3433,31.4014,31.4014,0,0,0,5.5986-1.415v-.5743a2.9836,2.9836,0,0,0-.82-2.3686,4.9156,4.9156,0,0,0-3.0967-.7075,4.1232,4.1232,0,0,0-2.3994.605A4.2036,4.2036,0,0,0,38.5508,16.9469Zm7.7109,4.6758a36.023,36.023,0,0,1-3.5068.8818,10.5641,10.5641,0,0,0-3.1377,1.0049,2.4034,2.4034,0,0,0-1.1279,2.03,2.8266,2.8266,0,0,0,.9023,2.0918,3.15,3.15,0,0,0,2.2969.8818,4.9905,4.9905,0,0,0,2.9736-1.0254,3.6088,3.6088,0,0,0,1.374-1.9072,11.3789,11.3789,0,0,0,.2256-2.81Z" />
		<path class="fill-color-vroom" d="M69.0459,10.3024H88.3848V32.0817H82.6221V14.9577H74.8086v17.124H69.0459Z" />
		<path class="fill-color-vroom" d="M96.1982,10.3024h19.2979V32.0817h-5.7422V14.9782h-7.8545V24.76a11.37,11.37,0,0,1-.8613,5.24,4.4883,4.4883,0,0,1-1.9072,1.979,8.7674,8.7674,0,0,1-3.3633.4717,23.5989,23.5989,0,0,1-3.63-.3691V27.8366q.1845,0,.9639.041.9022.0615,1.3945.0615,1.169,0,1.4355-.769a18.9767,18.9767,0,0,0,.2666-4.2759Z" />
		<path class="fill-color-vroom" d="M125.627,16.9469l-5.23-.9433a8.1453,8.1453,0,0,1,3.0351-4.6758Q125.586,9.81,129.8311,9.81a13.7889,13.7889,0,0,1,5.7421.9126A5.727,5.727,0,0,1,138.229,13.04q.769,1.4047.769,5.1577l-.0615,6.7266a23.3491,23.3491,0,0,0,.2769,4.2348,12.3607,12.3607,0,0,0,1.0356,2.9224h-5.7011q-.2256-.5742-.5538-1.7022-.1436-.5127-.205-.6767a10.39,10.39,0,0,1-3.1582,2.1533,9.0459,9.0459,0,0,1-3.5889.7178,7.4214,7.4214,0,0,1-5.3013-1.8252,6.0669,6.0669,0,0,1-1.938-4.6143,6.1938,6.1938,0,0,1,.8819-3.2915,5.7615,5.7615,0,0,1,2.4712-2.2148,19.3115,19.3115,0,0,1,4.5835-1.3433,31.4038,31.4038,0,0,0,5.5986-1.415v-.5743a2.9836,2.9836,0,0,0-.82-2.3686,4.9156,4.9156,0,0,0-3.0967-.7075,4.1232,4.1232,0,0,0-2.3994.605A4.2036,4.2036,0,0,0,125.627,16.9469Zm7.7109,4.6758a36.023,36.023,0,0,1-3.5068.8818,10.5619,10.5619,0,0,0-3.1377,1.0049,2.4035,2.4035,0,0,0-1.128,2.03,2.8267,2.8267,0,0,0,.9024,2.0918,3.15,3.15,0,0,0,2.2968.8818,4.9908,4.9908,0,0,0,2.9737-1.0254,3.6093,3.6093,0,0,0,1.374-1.9072,11.3789,11.3789,0,0,0,.2256-2.81Z" />
		<path class="fill-color-vroom" d="M142.0947,10.3024h19.708v4.6553H154.83v17.124h-5.7627V14.9577h-6.9727Z" />
		<path class="fill-color-vroom" d="M177.7783,2.0172H183.5V13.0709a7.115,7.115,0,0,1,2.502-2.43,6.7167,6.7167,0,0,1,3.3222-.81,6.6439,6.6439,0,0,1,5.732,3.394,14.4609,14.4609,0,0,1,2.225,8.1109,12.7412,12.7412,0,0,1-2.4916,7.9878,7.2858,7.2858,0,0,1-5.896,3.2505,5.76,5.76,0,0,1-2.8916-.7691,8.3778,8.3778,0,0,1-2.502-2.2866V40.3668h-5.7217V29.5182a9.1442,9.1442,0,0,1-2.6762,2.2866,6.2775,6.2775,0,0,1-3.025.7691,6.8863,6.8863,0,0,1-5.8242-3.2608,13.9024,13.9024,0,0,1-2.2968-8.2031,12.35,12.35,0,0,1,2.625-8.1006q2.625-3.1992,5.6806-3.1992a6.0452,6.0452,0,0,1,3.0352.7793,7.823,7.823,0,0,1,2.4814,2.3379Zm-3.8554,12.2022a3.3758,3.3758,0,0,0-2.7994,1.9175,9.4266,9.4266,0,0,0-1.2,5.0551,9.9707,9.9707,0,0,0,1.1177,5.0655,3.2336,3.2336,0,0,0,2.7788,1.9072,3.3556,3.3556,0,0,0,2.8506-1.9072,9.9346,9.9346,0,0,0,1.1689-5.209q0-3.5889-1.2714-5.209A3.4871,3.4871,0,0,0,173.9229,14.2194Zm13.4736.041a3.27,3.27,0,0,0-2.8711,2.061,10.8075,10.8075,0,0,0-1.1074,5.1577,8.9256,8.9256,0,0,0,1.1792,4.9117,3.3539,3.3539,0,0,0,2.7993,1.8149q1.62,0,2.789-2.0508a9.61,9.61,0,0,0,1.169-4.84,10.7291,10.7291,0,0,0-1.0664-5.0142A3.2233,3.2233,0,0,0,187.3965,14.26Z" />
		<path class="fill-color-vroom" d="M200.1611,20.8844a11.781,11.781,0,0,1,1.4151-5.5576,9.7131,9.7131,0,0,1,4.0092-4.1016,11.8991,11.8991,0,0,1,5.7935-1.415,10.8736,10.8736,0,0,1,8.1006,3.21,11.0881,11.0881,0,0,1,3.1582,8.1108,11.2211,11.2211,0,0,1-3.189,8.1929,10.7782,10.7782,0,0,1-8.0288,3.2505,12.6476,12.6476,0,0,1-5.7114-1.3535,9.2848,9.2848,0,0,1-4.1323-3.9683A13.2211,13.2211,0,0,1,200.1611,20.8844Zm5.9063.3076a7.2156,7.2156,0,0,0,1.5381,4.9629,5.0278,5.0278,0,0,0,7.5776,0,7.3147,7.3147,0,0,0,1.5278-5.0039,7.1814,7.1814,0,0,0-1.5278-4.9219,5.028,5.028,0,0,0-7.5776,0A7.216,7.216,0,0,0,206.0674,21.192Z" />
		<path class="fill-color-vroom" d="M226.9854,10.3024h5.373v3.1992a8.04,8.04,0,0,1,2.83-2.666,7.8006,7.8006,0,0,1,3.958-1.0254,8.3033,8.3033,0,0,1,6.4394,2.9736q2.6455,2.9737,2.6455,8.2852,0,5.4551-2.666,8.48a8.3059,8.3059,0,0,1-6.46,3.0249,7.34,7.34,0,0,1-3.271-.7178,11.025,11.025,0,0,1-3.0865-2.4609V40.3668h-5.7626Zm5.7011,10.5205q0,3.6709,1.4561,5.4243a4.4536,4.4536,0,0,0,3.5478,1.7534,4.164,4.164,0,0,0,3.3428-1.61q1.333-1.61,1.333-5.2808a7.8721,7.8721,0,0,0-1.374-5.0859,4.25,4.25,0,0,0-3.4043-1.6612,4.4212,4.4212,0,0,0-3.5068,1.63A7.257,7.257,0,0,0,232.6865,20.8229Z" />
		<path class="fill-color-vroom" d="M252.4229,10.3024H259.56l5.414,15.1758,5.4551-15.1758h7.1162V32.0817h-4.9013V17.7467l-5.3116,14.335H262.41l-5.0655-14.335v14.335h-4.9218Z" />
		<path class="fill-color-vroom" d="M295.94,25.15l5.7422.9639a9.4236,9.4236,0,0,1-3.4961,4.8091,10.2753,10.2753,0,0,1-5.9785,1.6509q-5.6807,0-8.4082-3.7119a12.4709,12.4709,0,0,1-2.1533-7.5059q0-5.4141,2.83-8.48A9.32,9.32,0,0,1,291.6338,9.81a9.6674,9.6674,0,0,1,7.67,3.21q2.81,3.2094,2.6865,9.8335H287.5527a5.8307,5.8307,0,0,0,1.3946,3.9887,4.3617,4.3617,0,0,0,3.3222,1.4253,3.5283,3.5283,0,0,0,2.2764-.7383A4.5587,4.5587,0,0,0,295.94,25.15Zm.3282-5.8242a5.549,5.549,0,0,0-1.292-3.8042,4.1588,4.1588,0,0,0-6.1114.0718,5.3168,5.3168,0,0,0-1.21,3.7324Z" />
		<path class="fill-color-vroom" d="M490.56,145.1577a7.1872,7.1872,0,0,1-5.358-2.11,8.0088,8.0088,0,0,1,.021-10.785,7.8482,7.8482,0,0,1,10.719-.034,8.0258,8.0258,0,0,1-.022,10.797,7.2016,7.2016,0,0,1-5.36,2.132m.024-1.317a5.7522,5.7522,0,0,0,4.342-1.731,6.7455,6.7455,0,0,0-.033-8.91,6.2736,6.2736,0,0,0-8.676-.021,6.728,6.728,0,0,0,.034,8.898,5.75,5.75,0,0,0,4.333,1.764m2.299-2.21a1.3989,1.3989,0,0,1-1.229-.782l-1.361-1.943h-.805v1.719q0,.9615-.914.961h-.291c-.596,0-.894-.396-.894-1.184v-5.539q0-1.16,1.095-1.16h2.389q3.261,0,3.26,2.523a2.16,2.16,0,0,1-1.831,2.3l1.787,2.345c.029.044-.008.126-.112.245a1.6684,1.6684,0,0,1-.47.347,1.32,1.32,0,0,1-.624.168m-3.439-6.298v2.032h1.317q1.2735,0,1.273-1.005,0-1.026-1.318-1.027Z" />
	</g>
</svg>