<svg id="Layer_1" data-name="Layer 1" xmlns="http://www.w3.org/2000/svg" xmlns:xlink="http://www.w3.org/1999/xlink"  viewBox="0 0 507.937 145.089">
	<style type="text/css">
    .fill-color-black {
      fill: #000000;
    }
  </style>
	<g>
		<path class="fill-color-black" d="M25.2354,112.1115c0-.9366-1.521-1.7168-3.042-2.4571-.4683-.1953-.9361-.4687-.9361-.7021,0-.1953.312-.3516,1.2871-.3906a22.1784,22.1784,0,0,1,4.0562.9365c.8579.3115,1.0527.7021,1.0527,1.0918,0,.3125-.1167.624-.1167.9756l-.0781,21.0605c-.0781,5.1094-1.0532,6.4736-1.56,6.4736-.4292,0-.663-.9355-.663-2.8466V121.8224l-3.627.1563c-1.1313.1943-1.3262.5849-1.7944.5849a6.5579,6.5579,0,0,1-2.9248-1.4043,23.0308,23.0308,0,0,1-1.3653,1.9893c2.6909,4.0556,3.666,3.12,4.4463,4.7578a7.77,7.77,0,0,1,.9751,3.042c0,.6631-.312.9365-.624.9365a.8178.8178,0,0,1-.5459-.2734c-1.6773-1.7549-3.51-5.7715-4.9146-7.6436a45.8714,45.8714,0,0,1-10.062,8.6973,1.8575,1.8575,0,0,1-.8584.39c-.0781,0-.1557-.039-.1557-.1172,0-.1552.2339-.4287.6631-.8183,1.9106-1.3262,10.2963-8.62,12.48-16.3809-1.1313.0391-3.8222.2725-5.7724.4678-.9751.1562-1.0533.5068-1.5992.5068-.663,0-3.5878-1.1308-3.5878-1.7158,0-.1172.1557-.1953.4677-.1953a6.8755,6.8755,0,0,1,.7412.0781,30.4327,30.4327,0,0,0,3.51.1563,53.5617,53.5617,0,0,0,5.46-.2344,4.5589,4.5589,0,0,1,2.0284-.39c1.0136,0,2.0669,0,2.0669.4288,0,.2343-.273.5068-.4292.78a33.9076,33.9076,0,0,1-2.73,5.1875c.3511,0,1.9892.0782,2.3789.0782,2.0283,0,3.9394-.1172,5.7725-.1954Zm6.2792-2.8086c-.039-.6631-1.4819-1.6377-3.0419-2.4961-.585-.2334-.8975-.4678-.8975-.6631,0-.2334.39-.3506,1.2871-.39a37.06,37.06,0,0,1,4.3291,1.209c.6631.3116.8193.585.8193.8965,0,.2734-.1562.585-.1562,1.0147v27.5742c-.1558,3.6269-.8579,5.5381-1.5986,5.7715-.3511,0-.7022-.39-.7413-2.3789Z" />
		<path class="fill-color-black" d="M57.4492,117.5324c-.0781-.585-1.17-1.17-2.5351-1.6377-.585-.1563-.9751-.3125-.9751-.5078,0-.1553.351-.3116,1.17-.5069,4.0952.3516,4.7583.6631,4.7583,1.3262,0,.2734-.1172.624-.1563,1.0527l-.1557,6.0069c2.4961-.0391,4.3291-.1172,8.5805-.43,3.1978-.2334,2.8467-.9746,4.4849-.9746,1.794,0,3.51.5459,3.51,1.3652,0,.4678-.585.8574-1.56.8574h-.2729c-1.7554-.1162-3.7833-.1553-5.9673-.1553-6.1236,0-13.3384.39-17.9019.7793-1.248.3125-1.5991.7413-2.3008.7413-1.1313,0-4.9531-1.6768-4.9531-2.2227,0-.1172.1167-.1953.4287-.1953a5.7956,5.7956,0,0,1,.6631.0781,49.71,49.71,0,0,0,6.9033.4678c2.1841,0,4.3291-.1172,6.2793-.2725Zm9.9063-9.5166c1.0141-.0782.8188-.3506,2.0283-.3506.9355,0,2.4961.1172,2.4961.624,0,.3506-.5464.78-.7412,1.3652-.9361,3.3535-1.6382,6.7471-3.1983,9.0479-.39.4678-.7021.7412-.8579.7412s-.2339-.1563-.2339-.4287a4.0754,4.0754,0,0,1,.1167-.8194,42.4948,42.4948,0,0,0,1.4043-9.0878c-3.12.039-10.7256.3906-14.8989.8193-1.0527.1562-1.4429.5068-2.106.5068-1.1308,0-4.0952-1.6767-4.0952-2.0273,0-.1172.1172-.1563.4292-.1563a6.9547,6.9547,0,0,1,1.0923.1172,41.4654,41.4654,0,0,0,5.2652.2725C58.1514,108.64,65.4443,108.2111,67.3555,108.0158Zm-9.3213,20.0078c.4678-.1172.78-.39.78-.7412a.8046.8046,0,0,0-.273-.5459.6659.6659,0,0,1-.2729-.4678c0-.1563.1172-.2734.4292-.2734.6631,0,2.0669.7021,2.0669,1.17a4.06,4.06,0,0,1-.3121.8974c4.7193.8194,6.9424,3.7442,6.9424,6.5909,0,3.1591-2.769,6.2793-7.9174,6.2021-5.2261-.1172-7.9952-3.2764-7.9952-6.4746,0-2.6914,1.9888-5.4209,6.2012-6.24Zm-4.29,6.24c0,2.4961,1.8721,4.9922,5.6553,4.9922s5.6939-2.4961,5.6939-4.9922c0-2.457-1.9112-4.9531-5.6939-4.9531S53.7441,131.8068,53.7441,134.2638Z" />
		<path class="fill-color-black" d="M444.4915,12.2521c-12.643,0-23.474,6.899-31.927,16.594-4.414-11.027-12.949-16.594-25.186-16.594-12.662,0-21.694,7.784-29.723,16.411V12.2061l-36.06-.018v93.9h36.06V48.1621a18.0377,18.0377,0,0,1,10.829-3.822c5.831,0,10.234,2.817,10.234,11.645v50.103h36.052V48.2311a18.1549,18.1549,0,0,1,10.86-3.817c5.806,0,10.231,2.811,10.231,11.638v50.036h36.06V44.5771c0-19.889-8.751-32.325-27.43-32.325" />
		<path class="fill-color-black" d="M258.7473-.12a53.0276,53.0276,0,0,0-52.783,48.045,29.2463,29.2463,0,1,0,18.288,45.238A53.0282,53.0282,0,1,0,258.7473-.12m-58.588,86.504a9.789,9.789,0,1,1,9.801-9.792,9.7883,9.7883,0,0,1-9.801,9.792m58.588-12.331a21.1335,21.1335,0,1,1,21.127-21.121,21.1184,21.1184,0,0,1-21.127,21.121" />
		<path class="fill-color-black" d="M194.2532,35.6066V12.1936s-23.336-1.795-35.488,16.697V12.1016l-36.002.079V106.05h36.002V77.5156c0-17.638,11.486-38.045,35.488-41.909" />
		<polygon class="fill-color-black" points="57.339 62.243 38.287 12.181 0 12.181 40.109 106.05 74.624 106.05 114.745 12.181 76.452 12.181 57.339 62.243" />
		<path class="fill-color-black" d="M486.61,106.5288a7.1872,7.1872,0,0,1-5.358-2.11,8.0088,8.0088,0,0,1,.021-10.785,7.8455,7.8455,0,0,1,10.719-.034,8.0259,8.0259,0,0,1-.021,10.796,7.2062,7.2062,0,0,1-5.361,2.133m.024-1.317a5.7522,5.7522,0,0,0,4.342-1.731,6.7454,6.7454,0,0,0-.033-8.91,6.2736,6.2736,0,0,0-8.676-.021,6.728,6.728,0,0,0,.034,8.898,5.75,5.75,0,0,0,4.333,1.764m2.299-2.211a1.3978,1.3978,0,0,1-1.229-.781l-1.361-1.944h-.804v1.72q0,.9615-.915.961h-.29c-.596,0-.895-.396-.895-1.184v-5.539q0-1.1595,1.095-1.16h2.389q3.261,0,3.26,2.523a2.1576,2.1576,0,0,1-1.831,2.299l1.787,2.345c.029.045-.008.127-.112.246a1.6684,1.6684,0,0,1-.47.347,1.3188,1.3188,0,0,1-.624.167m-3.439-6.297v2.032h1.317c.85,0,1.273-.335,1.273-1.005q0-1.026-1.318-1.027Z" />
	</g>
</svg>