<svg version="1.1" id="Layer_1" xmlns="http://www.w3.org/2000/svg" xmlns:xlink="http://www.w3.org/1999/xlink" x="0px" y="0px"
	 viewBox="0 0 537.6 659.2" style="enable-background:new 0 0 537.6 659.2;" xml:space="preserve">
<g transform="translate(0,-1020.3622)">
	<path d="M410.2,1020.4c-17.5,0-32,14.5-32,32c0,3.3,0.7,6.5,1.6,9.5l-24.6,24.7c-5.8-5.3-12-10.2-18.7-14.4
		c-20.9-13.1-44.2-19.7-67.5-19.7c-23.3,0-46.7,6.4-67.6,19.4c-6.9,4.3-13.2,9.3-19.1,14.7l-24.5-24.6c1-3,1.7-6.2,1.7-9.5
		c0-17.6-14.5-32-32-32c-17.5,0-32,14.5-32,32c0,17.6,14.5,32,32,32c4.8,0,9.3-1.3,13.4-3.2l24.2,24.2
		c-13.4,17.6-22.9,38.3-27.7,60.6c0.1,0,0.2,0,0.3,0l0,0c1.7,0,3.4,0,5.1,0.3c86.9,14,166.7,18.3,250.6,0.3c2.3-0.5,4.8-0.7,7.1-0.5
		c-4.7-22.4-14.3-43.1-27.7-60.6l24.2-24.3c4.1,1.9,8.6,3.2,13.4,3.2c17.5,0,32-14.5,32-32C442.2,1034.9,427.8,1020.4,410.2,1020.4
		L410.2,1020.4z" fill="currentColor"/>
	<path d="M138.6,1191.6C43.8,1237.2,0,1328.6,0,1428.4c0,142.6,104.9,244.8,254.4,251v-475.9
		C216.2,1202.1,177.9,1197.9,138.6,1191.6L138.6,1191.6z M398.6,1191.6c-40.2,8.6-79.4,12.2-118.6,12.3v475.7
		c151.2-4.9,257.6-107.6,257.6-251.2C537.5,1328.5,493.5,1237.1,398.6,1191.6z M179.2,1270.2c14.1,0,25.6,11.5,25.6,25.6l0,0
		c0,14.1-11.5,25.6-25.6,25.6c0,0,0,0,0,0c-14.1,0-25.6-11.5-25.6-25.6l0,0C153.6,1281.6,165.1,1270.2,179.2,1270.2
		C179.2,1270.2,179.2,1270.2,179.2,1270.2z M358.4,1270.2c14.1,0,25.6,11.5,25.6,25.6l0,0c0,14.1-11.5,25.6-25.6,25.6c0,0,0,0,0,0
		c-14.1,0-25.6-11.5-25.6-25.6l0,0C332.8,1281.6,344.3,1270.2,358.4,1270.2C358.4,1270.2,358.4,1270.2,358.4,1270.2z M115.2,1379
		c21.2,0,38.4,17.2,38.4,38.4c0,21.2-17.2,38.4-38.4,38.4s-38.4-17.2-38.4-38.4C76.8,1396.2,94,1379,115.2,1379z M422.4,1379
		c21.2,0,38.4,17.2,38.4,38.4c0,21.2-17.2,38.4-38.4,38.4s-38.4-17.2-38.4-38.4C384,1396.2,401.2,1379,422.4,1379z M166.4,1519.9
		c17.7,0,32,14.3,32,32v0c0,17.7-14.3,32-32,32s-32-14.3-32-32C134.4,1534.2,148.7,1519.9,166.4,1519.9
		C166.4,1519.9,166.4,1519.9,166.4,1519.9z M371.2,1519.9c17.7,0,32,14.3,32,32v0c0,17.7-14.3,32-32,32s-32-14.3-32-32
		C339.2,1534.2,353.5,1519.9,371.2,1519.9C371.2,1519.9,371.2,1519.9,371.2,1519.9z" fill="currentColor"/>
</g>
</svg>
