<svg xmlns="http://www.w3.org/2000/svg" viewBox="0 0 445.6233 146.151">
  <path fill="currentColor" d="M398.4233,11.09c-11.333,0-21.041,6.185-28.618,14.874-3.956-9.884-11.608-14.874-22.575-14.874-11.351,0-19.446,6.978-26.643,14.71V11.049l-32.323-.017v84.17h32.323V43.278a16.1745,16.1745,0,0,1,9.706-3.425c5.228,0,9.174,2.525,9.174,10.438V95.202h32.315V43.34a16.2772,16.2772,0,0,1,9.735-3.421c5.205,0,9.171,2.52,9.171,10.431V95.202H423.01V40.065c0-17.828-7.845-28.975-24.587-28.975" />
  <path fill="currentColor" d="M231.93,0a47.5326,47.5326,0,0,0-47.313,43.066,26.2156,26.2156,0,1,0,16.393,40.55A47.5325,47.5325,0,1,0,231.93,0m-52.516,77.539a8.7745,8.7745,0,1,1,8.786-8.778,8.7728,8.7728,0,0,1-8.786,8.778M231.93,66.486a18.943,18.943,0,1,1,18.937-18.932A18.9295,18.9295,0,0,1,231.93,66.486" />
  <path fill="currentColor" d="M174.1206,32.0241V11.0381s-20.917-1.609-31.811,14.966V10.9551l-32.271.071v84.14H142.31V69.59c0-15.81,10.296-34.103,31.811-37.566" />
  <polygon fill="currentColor" points="51.397 55.9 34.319 11.026 0 11.026 35.952 95.166 66.889 95.166 102.852 11.026 68.528 11.026 51.397 55.9" />
  <path fill="currentColor" d="M228.8586,109.0933v-2.2968h28.8955v2.2968Zm1.5791,2.42,1.0664-.0616a27.3077,27.3077,0,0,0,4.44,12.11q3.4965,5.0551,9.0542,5.0547a8.139,8.139,0,0,0,6.1318-2.3281,8.23,8.23,0,0,0,2.2559-5.9776A6.9264,6.9264,0,0,0,251.52,115.4a5.8579,5.8579,0,0,0-4.43-2q-1.8458,0-1.8457.82,0,.2051.8818,1.0254a2.6737,2.6737,0,0,1,.8613,2.0508,3.8992,3.8992,0,0,1-1.0766,2.7275,3.5825,3.5825,0,0,1-2.7583,1.1689,3.9466,3.9466,0,0,1-3.1377-1.3437,4.8927,4.8927,0,0,1-1.169-3.332,5.0385,5.0385,0,0,1,1.815-4.04,7.4831,7.4831,0,0,1,4.9936-1.5381,8.243,8.243,0,0,1,6.6036,2.9737,11.3841,11.3841,0,0,1,2.5224,7.6289,10.8817,10.8817,0,0,1-2.7788,7.7724,8.8206,8.8206,0,0,1-6.6548,2.9532,9.7294,9.7294,0,0,1-6.9624-2.7686,25.0148,25.0148,0,0,1-5.2192-7.9267A30.7982,30.7982,0,0,1,230.4377,111.5133Z" />
  <path fill="currentColor" d="M201.9788,109.0933v-2.2968h27.2343v2.2968H225.03v23.2354h-.7588l-1.8457-2.6865V118.773a35.8507,35.8507,0,0,0-2.1943-2.8916.9668.9668,0,0,0-.5742-.3281q-.3486,0-3.1172,3.4863-2.9736-3.5478-6.05-3.5478a4.9708,4.9708,0,0,0-4.9219,4.9834,6.17,6.17,0,0,0,.9434,3.5166q.9434,1.4063,1.8662,1.4052.6151,0,.6562-1.0253a3.0266,3.0266,0,0,1,.8921-2.2256,3.4893,3.4893,0,0,1,2.41-.7481,3.8541,3.8541,0,0,1,3.999,3.835,3.224,3.224,0,0,1-1.1484,2.6553,4.4636,4.4636,0,0,1-2.9121.9336,7.3757,7.3757,0,0,1-5.8858-2.9327,10.38,10.38,0,0,1-2.42-6.8086,7.7819,7.7819,0,0,1,1.7022-5.2089,5.0848,5.0848,0,0,1,7.1264-.9737,7.7175,7.7175,0,0,1,2.3482,2.6553q3.22-3.6913,3.2812-3.6914.39,0,3.999,5.0654v-7.834Z" />
  <path fill="currentColor" d="M196.9187,106.7965l-4.3682-3.5274a18.0813,18.0813,0,0,1,5.3526-4.789,11.6114,11.6114,0,0,1,5.7832-1.876,9.7974,9.7974,0,0,1,4.44,1.1592,45.5058,45.5058,0,0,1,5.855,3.7627l-.7178.9228a28.9211,28.9211,0,0,0-4.727-2.8916,8.8126,8.8126,0,0,0-3.5786-.9639,9.103,9.103,0,0,0-4.7271,1.6914,16.997,16.997,0,0,0-4.604,4.3584l2.625,2.1534h4.0811v2.2968h-4.1836v23.2149h-1.0869l-1.5381-2.707V109.0933h-3.835v-2.2968Z" />
  <path fill="currentColor" d="M185.2341,106.7965V103.31h.82l1.087,3.4864h4.9013v2.2968h-4.1836v23.2149h-1.0869l-1.5381-2.42v-20.795h-3.8349v-2.2968Z" />
  <path fill="currentColor" d="M158.1311,109.0933v-2.2968h23.625v2.2968H164.5706v1.128a2.7968,2.7968,0,0,0,1.497,2.3789,6.7623,6.7623,0,0,0,3.7324.9638h2.83a7.483,7.483,0,0,1,4.7989,1.3946,4.8457,4.8457,0,0,1,1.7431,4.0195,12.3148,12.3148,0,0,1-4.3066,9.3828q-4.3066,3.9478-8.5518,3.9473a3.8428,3.8428,0,0,1-4.3476-4.3477V109.0933Zm16.6934,7.7315h-2.8711a8.2736,8.2736,0,0,1-7.3828-4.0811v14.54a2.1281,2.1281,0,0,0,.4716,1.5068,1.8766,1.8766,0,0,0,1.4356.5029,11.0511,11.0511,0,0,0,4.3784-1.2607,14.8987,14.8987,0,0,0,4.8193-3.6406,7.2759,7.2759,0,0,0,2.1226-4.84,2.5121,2.5121,0,0,0-.8613-1.959A3.0619,3.0619,0,0,0,174.8245,116.8248Z" />
  <path fill="currentColor" d="M133.2253,109.0933v-2.2968h25.2452v2.2968h-4.1836v23.2149h-.9229a23.1985,23.1985,0,0,0-7.3418-7.1983,16.6865,16.6865,0,0,0-8.7978-2.7275q-.5333,0-1.0254.041l-1.333-3.8555,16.7959-8.2851v-1.1895Zm18.4366,19.626V113.5025L139.5828,119.45a17.993,17.993,0,0,1,6.48,3.3633A27.0207,27.0207,0,0,1,151.6619,128.7193Zm-11.1563,1.5381a2.7686,2.7686,0,0,1,5.5371,0,2.7161,2.7161,0,0,1-.82,1.9785,2.7233,2.7233,0,0,1-3.9067.0108A2.7262,2.7262,0,0,1,140.5056,130.2574Z" />
  <path fill="currentColor" d="M128.1648,106.7965l-4.3682-3.5274a18.08,18.08,0,0,1,5.3526-4.789,11.6114,11.6114,0,0,1,5.7832-1.876,9.7974,9.7974,0,0,1,4.44,1.1592,45.5058,45.5058,0,0,1,5.855,3.7627l-.7178.9228a28.9253,28.9253,0,0,0-4.727-2.8916,8.8126,8.8126,0,0,0-3.5786-.9639,9.103,9.103,0,0,0-4.7271,1.6914,16.997,16.997,0,0,0-4.604,4.3584l2.625,2.1534h4.0811v2.2968h-4.1836v23.2149h-1.087l-1.538-2.707V109.0933h-3.835v-2.2968Z" />
  <path fill="currentColor" d="M119.0906,109.0933v23.2149h-.9229l-1.7021-2.461V118.26a4.3867,4.3867,0,0,0-.8614-3.0146l-11.1152,9.3721-2.666-1.5381,4.45-3.794a3.7165,3.7165,0,0,0,.1435-1.0049,2.7089,2.7089,0,0,0-.82-2.041,2.8174,2.8174,0,0,0-2.03-.789,3.3071,3.3071,0,0,0-1.8457.6152,2.8819,2.8819,0,0,1-1.4971.6152,2.0009,2.0009,0,0,1-1.5689-.584,2.597,2.597,0,0,1-.5229-1.7744,7.2107,7.2107,0,0,1,2.5327-5.0146,8.3637,8.3637,0,0,1,11.2178-.666,18.6193,18.6193,0,0,1,4.5835,5.5371v-7.3828h6.8086v2.2968ZM108.9392,117.03l5.127-4.3477q-2.5225-3.2812-5.6807-3.2812a7.525,7.525,0,0,0-4.6143,1.7529q-2.2763,1.7549-2.2763,2.9023,0,.4307.4716.4307.3076-.1026.6973-.2051a6.3889,6.3889,0,0,1,.7691-.1533,5.5824,5.5824,0,0,1,.7485-.0518A5.4115,5.4115,0,0,1,108.9392,117.03Z" />
  <path fill="currentColor" d="M89.8108,106.7965V103.31h.82l1.0869,3.4864h4.9014v2.2968H92.4358v23.2149H91.3489l-1.5381-2.42v-20.795h-3.835v-2.2968Z" />
  <path fill="currentColor" d="M61.07,109.0933v-2.2968H86.3147v2.2968H82.1311v23.2149h-.9229a23.1982,23.1982,0,0,0-7.3417-7.1983,16.6871,16.6871,0,0,0-8.7979-2.7275q-.5333,0-1.0254.041l-1.333-3.8555,16.7959-8.2851v-1.1895Zm18.4365,19.626V113.5025L67.427,119.45a17.9934,17.9934,0,0,1,6.48,3.3633A27.0226,27.0226,0,0,1,79.5061,128.7193ZM68.35,130.2574a2.7686,2.7686,0,0,1,5.5372,0,2.7162,2.7162,0,0,1-.82,1.9785,2.7233,2.7233,0,0,1-3.9067.0108A2.7266,2.7266,0,0,1,68.35,130.2574Z" />
  <path fill="currentColor" d="M54.615,106.7965V103.31h.82l1.0869,3.4864h4.9014v2.2968H57.24v23.2149H56.1531l-1.5381-2.42v-20.795H50.78v-2.2968Z" />
  <path fill="currentColor" d="M42.9255,139.0142l1.23-3.63,7.7314,7.4238-.4511.7178Z" />
  <path fill="currentColor" d="M25.8738,109.0933v-2.2968H51.1189v2.2968H46.9353v23.2149h-.9229a23.1982,23.1982,0,0,0-7.3417-7.1983,16.6871,16.6871,0,0,0-8.7979-2.7275q-.5333,0-1.0254.041l-1.333-3.8555L44.31,110.2828v-1.1895ZM44.31,128.7193V113.5025L32.2312,119.45a17.9934,17.9934,0,0,1,6.48,3.3633A27.0226,27.0226,0,0,1,44.31,128.7193Z" />
  <path fill="currentColor" d="M.2961,109.0933v-2.2968H26.218v2.2968H6.49v13.1661a51.4166,51.4166,0,0,1,7.7417-6.87,24.1284,24.1284,0,0,1,7.0649-3.7734l2.6661,2.666q-3.7939,3.876-3.794,10.5a24.362,24.362,0,0,0,1.6406,8.1416l-.9228.41a26.7043,26.7043,0,0,1-2.6045-11.73,20.0391,20.0391,0,0,1,.8613-5.9062A41.9,41.9,0,0,0,6.2434,127.14L3.885,125.233v-16.14Z" />
  <path fill="currentColor" d="M438.1653,95.2387a7.1872,7.1872,0,0,1-5.358-2.11,8.0088,8.0088,0,0,1,.021-10.785,7.8455,7.8455,0,0,1,10.719-.034,8.0258,8.0258,0,0,1-.022,10.797,7.2016,7.2016,0,0,1-5.36,2.132m.023-1.317a5.7529,5.7529,0,0,0,4.343-1.731,6.7485,6.7485,0,0,0-.033-8.91,6.2736,6.2736,0,0,0-8.676-.021,6.728,6.728,0,0,0,.034,8.898,5.7489,5.7489,0,0,0,4.332,1.764m2.3-2.211a1.3978,1.3978,0,0,1-1.229-.781l-1.361-1.943h-.805v1.719q0,.96-.914.96h-.291q-.894,0-.894-1.183v-5.539q0-1.16,1.095-1.16h2.389q3.261,0,3.26,2.523a2.16,2.16,0,0,1-1.831,2.3l1.787,2.345c.029.044-.009.126-.112.245a1.6878,1.6878,0,0,1-.47.347,1.3218,1.3218,0,0,1-.624.167m-3.44-6.297v2.032h1.318q1.2735,0,1.273-1.005,0-1.026-1.318-1.027Z" />
</svg>