<svg xmlns="http://www.w3.org/2000/svg" xmlns:xlink="http://www.w3.org/1999/xlink"  viewBox="0 0 507.937 145.089">
  <path fill="currentColor" d="M444.4915,13.2521c-12.643,0-23.474,6.899-31.927,16.594-4.414-11.027-12.949-16.594-25.186-16.594-12.662,0-21.694,7.784-29.723,16.411V13.2061l-36.06-.018v93.9h36.06V49.1621a18.0377,18.0377,0,0,1,10.829-3.822c5.831,0,10.234,2.817,10.234,11.645v50.103h36.052V49.2311a18.1549,18.1549,0,0,1,10.86-3.817c5.806,0,10.231,2.811,10.231,11.638v50.036h36.06V45.5771c0-19.889-8.751-32.325-27.43-32.325" />
  <path fill="currentColor" d="M258.7473.88a53.0276,53.0276,0,0,0-52.783,48.045,29.2463,29.2463,0,1,0,18.288,45.238A53.0282,53.0282,0,1,0,258.7473.88m-58.588,86.504a9.789,9.789,0,1,1,9.801-9.792,9.7883,9.7883,0,0,1-9.801,9.792m58.588-12.331a21.1335,21.1335,0,1,1,21.127-21.121,21.1184,21.1184,0,0,1-21.127,21.121" />
  <path fill="currentColor" d="M194.2532,36.6066V13.1936s-23.336-1.795-35.488,16.697V13.1016l-36.002.079V107.05h36.002V78.5156c0-17.638,11.486-38.045,35.488-41.909" />
  <polygon fill="currentColor" points="57.339 63.243 38.287 13.181 0 13.181 40.109 107.05 74.624 107.05 114.745 13.181 76.452 13.181 57.339 63.243" />
  <path fill="currentColor" d="M14.397,127.4015l-4.2837,1.584V139.82c0,2.7715-1.3321,3.06-5.94,2.9874a9.277,9.277,0,0,0-.7558-2.34c1.0078.0361,1.9077.0723,2.6279.0723,1.5479,0,1.7275,0,1.7275-.72V129.8136c-1.6914.6123-3.2392,1.1514-4.4995,1.584a.66.66,0,0,1-.4316.6113l-.9-2.8076c1.5835-.4678,3.6-1.0791,5.831-1.835v-8.3154H2.3384v-2.2676h5.435v-7.3789l3.024.18c-.0362.2881-.2163.4317-.6841.5039v6.6953h4.14v2.2676h-4.14V126.61l3.96-1.2949Zm11.5185,12.1309a23.886,23.886,0,0,0,3.6714.2519h6.4072a7.7,7.7,0,0,0-.7558,2.16H29.479c-5.1836,0-8.9629-1.0078-11.4106-5.544a16.0956,16.0956,0,0,1-4.0318,6.5157,8.2547,8.2547,0,0,0-1.7637-1.2959c2.8438-2.4483,4.4278-6.9834,5.0752-12.2032l2.88.5049c-.0718.2871-.2881.3955-.72.4317a30.3913,30.3913,0,0,1-.6123,3.2392,8.3167,8.3167,0,0,0,4.68,5.2559V127.9415H15.0088v-2.1591H35.6343v2.1591H25.9155v4.4278h8.0269v2.0879H25.9155ZM33.4385,110.7V123.046H16.7007V110.7Zm-2.34,5.2188v-3.3115H18.9321v3.3115Zm0,5.22V117.755H18.9321v3.3838Z" />
  <path fill="currentColor" d="M43.0537,122.1105a42.5713,42.5713,0,0,1-4.3916,6.0117,17.8254,17.8254,0,0,0-1.26-2.2685c3.4556-3.7432,6.9112-9.9708,8.9991-16.1973l2.8794.9717c-.1441.2519-.396.3593-.8277.3242a65.3473,65.3473,0,0,1-3.3115,7.4512l.9717.2519c-.0718.2158-.252.3955-.72.4317v23.8652h-2.34Zm14.542,12.706c-.1079.2168-.396.3243-.792.2881a30.0051,30.0051,0,0,1-7.667,7.8477,13.4687,13.4687,0,0,0-1.8716-1.584,24.525,24.525,0,0,0,7.3789-7.6309Zm8.2432-5.2187H71.814v2.34H47.3369v-2.34h5.8677v-9.6826H48.4531v-2.2686h4.7515v-7.5947l3.0952.18c-.0356.2519-.2519.4326-.72.5039v6.9111h7.8471v-7.5947l3.0957.18c-.0361.2519-.2163.4326-.684.5039v6.9111h5.3994v2.2686H65.8389ZM55.58,119.9152v9.6826h7.8471v-9.6826Zm13.4985,23.0371a45.5652,45.5652,0,0,0-6.8393-8.1358l2.0878-1.1152a49.89,49.89,0,0,1,6.983,7.9551Z" />
  <path fill="currentColor" d="M86.5405,127.4738l-4.3554,1.5478v10.8711c0,2.5908-1.1875,2.9873-5.9751,2.9151a10.397,10.397,0,0,0-.792-2.2315c1.6919.0361,3.24.0361,3.7075.0361.4683-.0361.6841-.1806.6841-.6845v-10.042c-1.6919.5752-3.24,1.1152-4.4634,1.5117a.5842.5842,0,0,1-.4321.5762L73.9062,129.13c1.62-.4326,3.6714-1.0439,5.9034-1.7285v-8.459H74.3384v-2.2676H79.81v-7.27l3.0957.18c-.0362.2881-.2158.4317-.72.5039v6.5869h4.14v2.2676h-4.14v7.7031l4.0317-1.26Zm17.5659-3.4912,1.584.72a1.198,1.198,0,0,1-.3242.3955,25.6255,25.6255,0,0,1-6.875,10.8711,24.8808,24.8808,0,0,0,9.4307,4.7871,11.3915,11.3915,0,0,0-1.5835,2.0879,26.1141,26.1141,0,0,1-9.6831-5.3272A32.3162,32.3162,0,0,1,85.9287,142.88a9.723,9.723,0,0,0-1.3315-2.16,28.7405,28.7405,0,0,0,10.3305-4.8955,26.1925,26.1925,0,0,1-5.4712-8.9629l1.6914-.5391H87.44V124.09H95.54v-6.4072H86.8647V115.379H95.54v-6.0107l3.1318.2158c-.0361.252-.2163.4317-.72.5039v5.291h9.2871v2.3038H97.9512V124.09h5.7236Zm-12.4545,2.34a23.8113,23.8113,0,0,0,5.0756,8.0264,21.6749,21.6749,0,0,0,5.6514-8.0264Z" />
  <path fill="currentColor" d="M119.3013,110.4484a.7149.7149,0,0,1-.7559.2871,48.7635,48.7635,0,0,1-7.1992,7.9551,15.9193,15.9193,0,0,0-1.4038-1.7637,31.9782,31.9782,0,0,0,6.6592-7.5225Zm-4.8594,16.4131a40.62,40.62,0,0,1-3.1318,4.1035,13.3273,13.3273,0,0,0-1.2959-1.98,44.5933,44.5933,0,0,0,7.2353-11.77l2.7,1.0078c-.1084.2519-.36.36-.792.3242-.72,1.584-1.584,3.2031-2.4839,4.751l.72.2519c-.0723.2168-.252.3965-.72.4688v18.8252h-2.2314Zm9.2866-1.7276c-.0718.2158-.2881.36-.6841.3965-.4316,4.751-1.2236,9.79-2.7715,12.7422a12.4283,12.4283,0,0,0-1.62-1.0439c1.4038-2.8077,2.0874-7.7754,2.4116-12.6709Zm9.9707-5.291H127.94v22.4248h-2.2675V119.8429H120.021v-2.1963h5.6514v-7.7383l2.9516.18c-.0361.252-.2158.4317-.6841.5039v7.0547h5.7593Zm-2.9155-9.4668a19.9917,19.9917,0,0,1,3.24,4.8594l-1.728.9355a24.2676,24.2676,0,0,0-3.1675-5.0029Zm1.1518,25.5205a69.47,69.47,0,0,0-1.98-10.9062c1.3681-.252,1.62-.3242,1.8359-.36a67.4467,67.4467,0,0,1,2.0879,10.8711Zm11.6626-14.29v2.1953h-3.3476v16.0908c0,2.7715-1.1157,2.9512-6.4434,2.9512a7.909,7.909,0,0,0-.7558-2.376c1.188.0361,2.2319.0723,3.0239.0723,1.7275,0,1.8354,0,1.8354-.6475V123.8019H133.52v-2.1953Zm-.6118-10.043V113.76h-8.6391v-2.1963Z" />
  <path fill="currentColor" d="M173.4067,123.3341l1.8,1.044a.8787.8787,0,0,1-.5039.36,26.2882,26.2882,0,0,1-9.5385,11.41,41.6774,41.6774,0,0,0,14.5058,4.5,10.7513,10.7513,0,0,0-1.5478,2.3037,40.0813,40.0813,0,0,1-15.334-5.3633,49.615,49.615,0,0,1-15.2979,5.2549,8.7431,8.7431,0,0,0-1.332-2.3037,50.0024,50.0024,0,0,0,14.47-4.4278,26.5456,26.5456,0,0,1-7.8828-9.5742l2.0518-.7558H149.146v-2.376h12.4546v-5.9033H147.166v-2.376h14.4346v-5.7227l3.2031.2159c-.0356.2519-.2519.4316-.72.5039v5.0029h14.5781v2.376H164.084v5.9033h8.855Zm-18.3935,2.4483a23.0245,23.0245,0,0,0,7.9551,8.999,22.8487,22.8487,0,0,0,8.4589-8.999Z" />
  <path fill="currentColor" d="M193.0649,127.69l-3.2753,1.1885v10.9785c0,2.8437-1.4039,3.0234-6.2276,3.0234a7.6947,7.6947,0,0,0-.7558-2.34c.7919.0361,1.5117.0361,2.16.0361,2.52,0,2.52-.0361,2.52-.7559V129.7052l-4.1035,1.44a.6592.6592,0,0,1-.4682.54l-.9-2.7725c1.5117-.4316,3.42-1.0078,5.4716-1.6553v-8.0634H182.374v-2.2676h5.1118v-7.5225l3.0235.18c-.0362.2881-.2158.4317-.72.5039v6.8389h4.0673v2.2676H189.79v7.3437l2.9511-.9365Zm18.0337,2.1963,1.3677.6474a.5713.5713,0,0,1-.2876.36,16.8433,16.8433,0,0,1-4.68,7.2344,26.2513,26.2513,0,0,0,8.1709,2.664,9.2977,9.2977,0,0,0-1.4756,2.0518,26.9709,26.9709,0,0,1-8.5312-3.2754,23.54,23.54,0,0,1-7.4868,3.2754,7.6455,7.6455,0,0,0-1.3677-1.836,23.5507,23.5507,0,0,0,6.9829-2.7353,17.0984,17.0984,0,0,1-4.6074-5.0752l1.9438-.6484a14.9185,14.9185,0,0,0,4.4273,4.4638,13.4441,13.4441,0,0,0,3.8877-5.1113H199.4c-1.4038,4.499-3.4194,8.2432-6.2988,10.7988a11.819,11.819,0,0,0-1.8-1.3681c3.6-3.0235,5.7949-8.0987,7.0551-14.3262h-4.8237v-2.0518h5.2193c.18-1.0439.3242-2.0879.4682-3.1679h-5.2915v-2.0157h13.6782l-.4316-.18a35.83,35.83,0,0,0,3.5273-6.2637l2.6636.9726c-.0718.2159-.3237.3233-.72.3233a47.3012,47.3012,0,0,1-3.3115,5.1474h4.1035v2.0157H201.5239c-.144,1.08-.2881,2.124-.4682,3.1679H215.13v2.0518H200.66c-.2164,1.0078-.4322,1.98-.6841,2.9512h10.69Zm2.3037-18.5381a.8987.8987,0,0,1-.36.0723.9941.9941,0,0,1-.3242-.0362,132.5448,132.5448,0,0,1-18.8975,2.0879,6.3011,6.3011,0,0,0-.5757-1.8721c6.4068-.3593,14.2539-1.1162,18.5015-2.1953Zm-16.2338,2.7a17.103,17.103,0,0,1,1.9077,4.6787l-1.98.6846a18.8575,18.8575,0,0,0-1.7993-4.7881Zm6.6591-.5039a18.6835,18.6835,0,0,1,1.1519,4.8945l-2.0156.4326a22.2265,22.2265,0,0,0-1.044-5.0039Z" />
  <path fill="currentColor" d="M487.1729,107.3032a7.1872,7.1872,0,0,1-5.358-2.11,8.0088,8.0088,0,0,1,.021-10.785,7.8455,7.8455,0,0,1,10.719-.034,8.0272,8.0272,0,0,1-.021,10.797,7.2055,7.2055,0,0,1-5.361,2.132m.024-1.317a5.7522,5.7522,0,0,0,4.342-1.731,6.7441,6.7441,0,0,0-.033-8.909,6.2723,6.2723,0,0,0-8.676-.022,6.728,6.728,0,0,0,.034,8.898,5.75,5.75,0,0,0,4.333,1.764m2.299-2.21a1.3989,1.3989,0,0,1-1.229-.782l-1.361-1.943h-.804v1.719q0,.9615-.915.961h-.29q-.894,0-.895-1.184v-5.539q0-1.1595,1.095-1.16h2.389q3.261,0,3.26,2.523a2.1593,2.1593,0,0,1-1.831,2.3l1.787,2.345c.029.044-.008.126-.112.245a1.6684,1.6684,0,0,1-.47.347,1.32,1.32,0,0,1-.624.168m-3.439-6.298V99.51h1.317c.85,0,1.273-.335,1.273-1.005q0-1.026-1.318-1.027Z" />
</svg>