<svg xmlns="http://www.w3.org/2000/svg" xmlns:xlink="http://www.w3.org/1999/xlink" viewBox="0 0 496.32 149.04">
  <path fill="currentColor" d="M0,54.8716c12.3509,0,24.7019.0157,37.0527-.0288a1.599,1.599,0,0,1,1.7735,1.25Q47.7914,79.7333,56.81,103.3539c.1366.3587.2937.71.5256,1.2668.22-.49.3724-.7884.4912-1.0991Q66.9233,79.74,76.0057,55.9522c.2556-.67.4655-1.11,1.3721-1.1072,12.191.04,24.3821.0265,36.5732.0278.1983,0,.3965.0169.7845.0345-.1663.4219-.2936.77-.4393,1.1107q-19.591,45.78-39.161,91.5693a1.5964,1.5964,0,0,1-1.7646,1.139q-16.0682-.0507-32.1364,0a1.4626,1.4626,0,0,1-1.59-1.0382Q20.1855,102.1084.6842,56.547A11.5634,11.5634,0,0,0,0,55.3509Z" />
  <path fill="currentColor" d="M321.53,54.9552H357.53v16.129c.4176-.3508.6545-.5157.8508-.72,4.3055-4.4735,8.78-8.7625,14.3474-11.66,9.2237-4.8,18.6416-5.2114,28.0786-.7,5.0735,2.4252,8.4045,6.6263,10.8008,11.6157.2723.5671.5267,1.1427.6807,1.4779,3.1508-2.7584,6.162-5.6871,9.4708-8.2294a36.3416,36.3416,0,0,1,22.16-7.9239c7.1831-.071,13.89,1.5032,19.2811,6.693a26.0578,26.0578,0,0,1,7.3727,14.2282,56.104,56.104,0,0,1,1.1337,10.3183c.1033,20.2847.0508,40.57.0508,60.8553v1.5916H435.6292v-1.3869q0-24.498-.0142-48.9959a17.2623,17.2623,0,0,0-.3324-3.4449c-1.0663-5.1675-4.3482-7.69-9.8495-7.6692a17.3489,17.3489,0,0,0-10.0667,3.3324,2.198,2.198,0,0,0-.6732,1.5954c-.0417,8.3455-.0291,16.6912-.0291,25.0369v31.4921H378.5368v-1.3548q0-24.3183-.024-48.6365a18.7847,18.7847,0,0,0-.5592-4.7322c-1.4354-5.4041-5.2758-6.8857-10.041-6.8154a17.479,17.479,0,0,0-9.3238,3.064,2.0247,2.0247,0,0,0-1.0378,1.9425q.0416,27.5526.0207,55.1054v1.4688H321.53Z" />
  <path fill="currentColor" d="M224.2091,135.9433A29.3,29.3,0,1,1,205.72,90.5048c2.8679-20.4073,13.2943-35.4072,32.3554-43.6919,13.9007-6.0419,28.1221-5.81,41.9907.3142a52.7452,52.7452,0,0,1,25.9414,72.3165c-7.7135,15.1726-20.1742,24.6941-36.8868,28.0586C252.4119,150.866,237.4061,146.65,224.2091,135.9433ZM279.74,95.6364a21.089,21.089,0,1,0-21.5169,21.0191A21.1413,21.1413,0,0,0,279.74,95.6364Zm-79.6386,33.3124a9.7229,9.7229,0,1,0-9.7754-9.7255A9.7485,9.7485,0,0,0,200.1018,128.9488Z" />
  <path fill="currentColor" d="M122.6758,54.8851h36.0221v16.487c8.9027-12.2363,21.162-16.4839,35.4758-16.5661V78.2407c-1.9348.4758-3.9367.8429-5.8579,1.46-15.5072,4.9852-24.79,15.7073-28.4957,31.3491a45.3936,45.3936,0,0,0-1.007,9.7233c-.1327,8.8212-.0455,17.6458-.0455,26.469v1.4c-.53.0239-.9582.06-1.3863.06-11.1114.003-22.2229-.0133-33.3341.027-1.0984.0039-1.3967-.283-1.3956-1.3892q.0456-45.5732.0243-91.1465Z" />
  <path fill="currentColor" d="M146.7176,33.46c0,2.9578.0049,5.623-.0014,8.2881-.0067,2.85-2.4054,4.3016-4.9255,2.9084a3.1955,3.1955,0,0,1-1.1717-1.5461,4.7421,4.7421,0,0,1-.1885-1.7682q-.0153-12.3268-.0062-24.6537c0-1.4287.2765-1.725,1.7025-1.8548,2.5632-.2333,3.6395.54,4.516,3.2953a21.2742,21.2742,0,0,1,1.653-1.8025c3.1638-2.7576,8.7815-2.3951,12.0539.7447,4.4032,4.2247,4.3131,13.1814-.0826,17.403C157.1805,37.4386,150.5756,38.5837,146.7176,33.46Zm5.0267-13.9018c-.1229.0111-.4824.0285-.8375.0783a4.656,4.656,0,0,0-4.1879,4.8147c.0022.9569-.0073,1.9162.0538,2.87a5.1045,5.1045,0,0,0,5.8873,4.71c3.1364-.4469,5.0724-3.0462,4.9034-6.5834C157.39,21.8248,155.2176,19.5317,151.7443,19.5583Z" />
  <path fill="currentColor" d="M15.2493,7.7135c.711.0685,1.4328.0941,2.1378.2166a2.6028,2.6028,0,0,1,2.1137,1.7205q4.8547,12.2853,9.7618,24.55a1.1566,1.1566,0,0,1-.4453,1.5359,4.0128,4.0128,0,0,1-6.5055-1.6181c-.5805-1.3536-1.1047-2.7339-1.5886-4.125a.9966.9966,0,0,0-1.1307-.7723c-2.8775.0294-5.7557.034-8.6331-.0026a1.0493,1.0493,0,0,0-1.21.83c-.4787,1.4353-1,2.8616-1.6,4.25a3.8148,3.8148,0,0,1-6.1319,1.523c-.74-.558-.6482-1.1348-.357-1.8818Q6.3508,21.9109,10.9882,9.8609a2.8437,2.8437,0,0,1,2.4645-1.9656C14.0448,7.8175,14.6414,7.7739,15.2493,7.7135Zm-.0253,6.4616L11.43,24.2136h7.6Z" />
  <path fill="currentColor" d="M90.5978,25.2346c2.3741,2.9076,4.6615,5.7772,7.0345,8.5743.7293.86.5114,1.3646-.2465,1.9428a4.0274,4.0274,0,0,1-5.8518-.6477c-2.2176-2.6683-4.426-5.3443-6.7988-8.2109a9.45,9.45,0,0,0-.1415,1.0456c-.01,1.9552.0175,3.9109-.0123,5.8658-.0281,1.8424-.8729,2.752-2.5384,2.8234-2.5439.1091-3.3947-.4724-3.6666-2.5237a9.106,9.106,0,0,1-.08-1.19q-.0068-12.57-.0029-25.1395c0-1.3746.2463-1.6425,1.6247-1.7965,2.7213-.304,4.2857.7842,4.532,3.4976.2155,2.3751.1178,4.78.1346,7.1713.0167,2.3819.0037,4.7641.0037,7.5161,1.2043-1.4987,2.1929-2.7179,3.1692-3.9467,1.0426-1.3121,2.0453-2.6568,3.1165-3.9449a3.87,3.87,0,0,1,5.7271-.5407c.7.5787.8677,1.07.2,1.8647C94.7218,20.068,92.7218,22.6064,90.5978,25.2346Z" />
  <path fill="currentColor" d="M58.7824,27.4637a5.2624,5.2624,0,0,0,4.8931,4.884c2.7784.285,5.2476-.251,6.966-2.7257a.9692.9692,0,0,1,.7874-.2959,2.7606,2.7606,0,0,1,1.9257,4.3683,6.3631,6.3631,0,0,1-1.7173,1.6261c-3.9249,2.5713-11.0489,2.2327-14.7326-.6514-3.53-2.7632-4.8708-7.7448-3.3949-12.609a10.7231,10.7231,0,0,1,9.4454-7.4778c5.7583-.4482,10.0656,2.2294,11.4648,7.2391a15.4121,15.4121,0,0,1,.4406,3.6575c.0481,1.5982-.3657,1.9731-1.977,1.9793-4.2339.016-8.468.0055-12.7019.0055ZM69.04,23.7059c-.2906-3.2611-2.21-4.9494-5.3276-4.8068a5.1222,5.1222,0,0,0-4.8892,4.8068Z" />
  <path fill="currentColor" d="M188.9353,25.7816c.001,6.7461-4.6435,11.2732-11.5576,11.2654-6.8091-.0077-11.3961-4.5385-11.416-11.2759-.02-6.6941,4.695-11.3086,11.5454-11.3C184.242,14.4793,188.9344,19.1233,188.9353,25.7816Zm-17.4532-.0323c.0033,3.6808,2.5568,6.3832,6.0067,6.3568a5.9543,5.9543,0,0,0,5.8756-6.2355c.031-3.73-2.4514-6.4551-5.8853-6.4611C173.9831,19.4035,171.4787,22.0509,171.4821,25.7493Z" />
  <path fill="currentColor" d="M123.1519,21.8345a8.1932,8.1932,0,0,0-8.0457-2.6846c-.3085.0626-.7128.1118-.88.3209-.3941.4939-.9231,1.082-.92,1.6291a1.8571,1.8571,0,0,0,1.0627,1.3462c1.5377.5332,3.1553.8312,4.7239,1.2827a22.7917,22.7917,0,0,1,3.2679,1.1309,5.856,5.856,0,0,1,1.0524,9.9737,11.7176,11.7176,0,0,1-4.2259,1.7977,15.4509,15.4509,0,0,1-7.8178-.2649,10.0788,10.0788,0,0,1-3.4425-1.8116,2.8144,2.8144,0,0,1-.0388-4.4c.4705-.432.8321-.5721,1.4079-.0429a9.3855,9.3855,0,0,0,8.228,2.2537c.3111-.0487.719-.0745.8947-.2748.4353-.4963,1.0333-1.0794,1.05-1.6432a1.9464,1.9464,0,0,0-1.0717-1.4571c-1.41-.5248-2.9141-.7937-4.3722-1.1954a23.6183,23.6183,0,0,1-2.9612-.9211c-4.9589-2.1015-4.3239-7.965-1.4807-10.1176a10.4073,10.4073,0,0,1,3.5843-1.8077,14.9481,14.9481,0,0,1,7.9282.1886,8.4259,8.4259,0,0,1,2.4557,1.1909C125.8609,17.9556,125.7064,20.2975,123.1519,21.8345Z" />
  <path fill="currentColor" d="M39.9939,30.5739c.9556-2.7307,1.8336-5.24,2.7119-7.7489.6579-1.8794,1.2528-3.784,1.9894-5.6321,1.0642-2.67,3.7135-3.2764,5.9363-1.4483a1.0729,1.0729,0,0,1,.3713,1.441q-3.7064,8.8131-7.3563,17.65a2.7275,2.7275,0,0,1-2.3532,1.7793,11.0567,11.0567,0,0,1-2.5077.002A2.8044,2.8044,0,0,1,36.36,34.771Q32.7316,25.99,29.0007,17.2516a1.1361,1.1361,0,0,1,.4754-1.6015c2.4276-1.7516,5.0084-1.0242,6.0276,1.8281,1.4072,3.9378,2.7109,7.9125,4.06,11.8711C39.6747,29.676,39.7921,30.0006,39.9939,30.5739Z" />
  <path fill="currentColor" d="M135.5721,25.7828c0,2.63.0067,5.26-.0016,7.89-.0065,2.0356-.78,2.9028-2.604,2.9534-2.56.071-3.534-.662-3.6184-2.8634-.0671-1.7508-.0157-3.5061-.0159-5.26,0-3.4669.0109-6.9338-.0032-10.4006-.0137-3.3457,1.95-3.7232,4.8148-3.0617,1.0939.2526,1.429,1.29,1.4285,2.3734Q135.57,21.5986,135.5721,25.7828Z" />
  <path fill="currentColor" d="M495.8824,141.1586a7.46,7.46,0,1,1-14.92-.0088,7.2916,7.2916,0,0,1,7.5027-7.5969C492.8905,133.5675,495.89,136.6432,495.8824,141.1586Zm-1.463.0247a5.99,5.99,0,1,0-11.9741-.12,6.0217,6.0217,0,0,0,6.02,6.2522A5.86,5.86,0,0,0,494.4194,141.1833Z" />
  <path fill="currentColor" d="M178.3156,12.2183a12.872,12.872,0,0,1-6.1481-1.9961c-1.7159-1.1529-2.3625-3.07-1.5215-4.3912.909-1.4286,2.8626-1.6712,4.6842-.5091a14.35,14.35,0,0,1,4.56,4.9654C180.8388,11.8919,180.6024,12.2408,178.3156,12.2183Z" />
  <path fill="currentColor" d="M65.8025,12.2713a13.2647,13.2647,0,0,1-6.6094-1.9293A5.9191,5.9191,0,0,1,57.5365,8.68a2.445,2.445,0,0,1,.04-3.0083,2.5952,2.5952,0,0,1,2.9828-.97,7.9334,7.9334,0,0,1,2.8488,1.64,31.0692,31.0692,0,0,1,3.2507,3.9354,2.0346,2.0346,0,0,1,.367,1.6073C66.9212,12.1758,66.0655,12.1987,65.8025,12.2713Z" />
  <path fill="currentColor" d="M132.5067,11.5033c-2.202-.0021-3.49-1.179-3.4837-3.184.006-1.9773,1.3533-3.1991,3.513-3.1858,2.1862.0135,3.4869,1.2139,3.48,3.2116C136.0087,10.3462,134.7208,11.5053,132.5067,11.5033Z" />
  <path fill="currentColor" d="M490.3305,142.0981l1.6,2.1712c-.81,1.1111-1.5835,1.1567-2.3712.1554-.37-.47-.6687-.9961-1.0482-1.4569a9.3885,9.3885,0,0,0-1.1038-.9219c0,.9178.0008,1.4579,0,1.998a.9367.9367,0,0,1-1.019,1.058.9634.9634,0,0,1-1.1326-1.07q-.0057-2.8746-.0027-5.7494a1.0039,1.0039,0,0,1,1.1139-1.1178c1.0382-.0114,2.081-.04,3.1142.04a2.4,2.4,0,0,1,2.4941,1.839C492.2813,140.4011,491.8342,141.2467,490.3305,142.0981Zm-3.0786-1.346c1.8358.2285,2.628-.0494,2.5988-.874-.0416-1.1756-.9811-1.0838-1.7445-1.0482C486.5825,138.9011,487.5765,140.044,487.2519,140.7521Z" />
</svg>