<svg class="splatter-2" viewbox="0 0 782 439" fill="none" xmlns="http://www.w3.org/2000/svg">
	<path d="M581.204 17.1887C579.67 20.2005 577.61 24.2375 577.027 27.778C572.21 25.0906 563.42 44.7472 561.878 47.771C561.445 47.5307 554.503 54.3392 545.395 61.1477C533.966 69.6864 519.131 78.2251 509.478 72.8504C500.787 68.0083 499.686 53.1938 491.061 48.3838C482.163 51.1873 477.599 57.7074 470.604 64.1395C469.649 63.6108 452.95 67.2033 451.919 69.1978C447.635 65.5412 441.909 59.782 437.092 57.0907C434.027 55.3965 430.192 57.2429 425.751 59.0892C421.801 60.7312 417.359 62.3733 412.554 61.5162C412.93 65.5893 414.245 72.7823 412.182 76.7913C407.794 85.3781 401.804 84.2887 394.59 83.1953C387.426 82.114 379.046 81.0286 369.845 89.4311C368.299 92.4429 368.545 101.622 367.003 104.658C366.497 105.643 359.628 107.001 357.699 105.924C353.837 103.765 351.048 99.6079 347.148 97.4532C341.395 94.2492 338.948 94.1931 336.896 98.2261C333.801 104.262 342.722 118.243 335.025 133.346C333.295 132.357 333.13 132.289 332.348 133.799C310.073 176.448 295.725 228.045 240.383 257.646C247.574 260.229 255.022 265.912 262.416 271.543C258.784 271.491 254.907 270.678 250.987 268.495C231.175 257.473 241.277 254.285 223.673 244.453C214.576 251.166 205.494 257.926 194.495 251.83C192.309 250.593 191.25 247.076 191.419 241.237C188.017 242.322 183.637 239.895 179.234 237.436C179.234 237.436 180.419 235.109 178.195 233.88L174.87 234.997C172.515 239.567 178.931 249.075 175.426 255.939C175.426 255.939 125.733 281.371 116.908 276.465C110.312 272.801 115.297 251.963 118.818 245.09C119.911 242.947 124.789 244.197 130.048 245.446C136.08 246.88 142.612 248.31 144.499 244.625C145.676 242.322 144.618 238.786 144.618 238.786C138.428 235.334 129.173 237.793 122.588 235.045C123.163 235.59 123.516 235.882 123.516 235.882L121.292 234.661C121.694 234.881 122.174 234.881 122.588 235.045C118.876 231.533 104.923 216.939 112.06 202.965C114.411 198.355 118.983 194.995 124.682 189.332C119.98 186.717 115.524 186.761 111.393 186.805C107.792 186.841 104.436 186.881 101.368 185.167C100.486 175.871 89.912 152.274 89.912 152.274C95.638 146.607 100.348 137.399 103.861 130.515C99.3083 127.979 93.6053 135.08 88.5581 142.189C83.8562 148.809 79.7218 155.426 77.6086 154.252C66.6015 148.113 70.2718 135.441 65.8766 132.998C63.1191 131.468 61.4546 132.585 59.188 133.703C56.0086 135.264 51.6326 136.83 41.3734 131.111C34.773 127.443 41.6572 119.501 37.2505 117.062C30.3586 113.225 23.8771 117.626 18.0054 122.024C12.6131 126.061 7.73849 130.098 3.52741 127.759C-7.449 121.639 3.30114 92.2346 -8.79132 85.4822C-11.4415 101.702 -11.8825 119.164 -12.0052 125.004C-32.2667 131.468 -55.7383 133.126 -58.0816 137.724C-59.2514 140.018 -60.4288 142.305 -55.9952 144.772C-68.6476 158.397 -91.2179 169.419 -95.6399 166.96C-95.6399 166.96 -97.7723 165.759 -96.6908 163.532C-98.9344 168.094 -92.38 171.746 -88.004 174.181C-82.5657 180.141 -84.909 184.722 -88.4412 191.635L-90.6311 190.418C-91.8086 192.712 -91.9543 198.52 -93.1202 200.815C-93.5267 201.591 -94.7962 201.547 -96.4799 201.507C-99.7858 201.419 -104.691 201.335 -107.794 207.411C-108.964 209.706 -110.137 212.009 -107.955 213.23C-105.738 214.468 -100.162 214.616 -97.9794 215.833C-95.8892 222.898 -100.748 237.909 -104.246 244.762C-112.477 260.874 -90.3358 267.306 -93.8412 274.178C-95.0186 276.465 -97.2124 275.26 -101.914 284.463C-97.5269 286.902 -91.9159 287.054 -87.54 289.493C-87.54 289.493 -71.2863 307.404 -75.9844 316.619C-77.1503 318.894 -81.6644 322.275 -81.6644 322.275L-81.8408 328.082C-81.1773 328.458 -79.0258 328.354 -75.9231 328.246C-68.5978 328.002 -55.9799 327.753 -45.1531 333.777C-38.5373 337.466 -51.3201 356.89 -46.9211 359.337C-45.9048 359.906 -43.4042 357.559 -40.359 355.212C-36.7731 352.448 -32.4355 349.689 -28.861 351.675C-26.6443 352.913 -23.4457 357.659 -22.4332 361.159C-12.2852 357.963 -15.2268 341.591 -2.04133 348.928C0.15242 350.157 1.05369 359.517 7.64644 363.174L14.6917 349.388C19.0869 351.848 22.3123 356.577 24.5022 357.799C30.2321 360.987 33.1469 356.217 36.3301 351.447C39.2679 347.05 42.4396 342.652 48.2691 344.482C57.0594 349.388 54.7161 353.998 65.7271 360.122C68.0742 355.524 67.0157 351.972 68.1931 349.677C70.5364 345.095 73.9689 344.002 81.7123 345.383C83.7603 352.452 80.09 365.144 75.3918 374.344C70.9966 371.897 67.4682 378.781 65.1326 383.367C74.8319 397.589 83.9175 390.876 73.3515 411.566L74.5289 409.263C78.9317 411.702 75.8367 445.385 84.65 450.299C85.6587 450.863 86.2378 449.938 86.9934 449.017C87.887 447.932 89.026 446.846 91.4077 448.168C115.6 461.645 101.671 483.396 112.666 489.52C116.13 491.454 119.071 489.836 121.717 488.218C124.118 486.756 126.27 485.29 128.352 486.456C139.367 492.596 145.81 502.092 159.019 509.453C160.1 507.322 166.866 503.549 171.384 504.923C170.72 504.306 170.314 503.914 170.314 503.914L172.515 505.135C172.189 504.951 171.759 505.067 171.384 504.923C175.564 509.04 190.103 526.025 176.926 551.842C180.289 550.768 182.467 551.986 183.637 549.695C184.807 547.404 179.556 535.609 185.413 524.151C198.334 498.852 228.084 512.477 228.084 512.477C230.308 513.726 230.308 513.726 229.138 516.021C231.309 517.23 234.692 516.165 234.692 516.165C234.841 510.326 236.184 502.252 237.361 499.937C246.439 502.076 254.033 499.829 261.634 497.582C270.516 494.955 279.41 492.331 290.697 496.693C287.905 504.258 285.75 510.374 285.098 512.152C301.601 534.568 321.233 557.633 340.041 576.705C350.216 552.663 365.365 545.994 389.443 552.603C388.948 553.592 396.128 578.267 398.061 579.34C405.589 583.537 410.468 578.075 416.535 572.608C423.668 566.18 432.451 559.756 449.115 569.027C449.115 569.027 460.943 584.643 459.911 586.669C469.089 590.478 474.857 593.694 480.967 584.182C483.015 580.161 484.104 575.579 485.646 572.564C489.243 565.527 529.079 536.022 554.127 549.971C559.919 553.207 559.19 561.838 564.954 565.058C569.802 567.742 575.758 563.328 576.797 561.302C582.474 550.244 571.006 538.709 575.651 529.634C583.156 530.027 587.221 529.025 590.117 528.024C595.118 526.294 596.641 524.564 606.386 529.99C604.346 533.995 613.972 539.362 615.92 540.44C617.827 541.505 623.284 538.085 625.336 534.072C629.977 525.008 618.406 518.564 624.584 506.505C631.25 493.429 641.264 502.885 651.293 492.948C649.379 491.883 649.885 490.886 650.403 489.876C650.905 488.879 652.896 487.397 653.406 486.38C654.445 484.357 649.824 474.052 652.393 469.022C656.244 461.485 670.058 456.21 683.436 451.841C680.54 457.816 681.046 464.288 691.436 470.079C692.936 470.913 694.404 471.289 695.82 471.269C694.174 475.33 695.432 476.091 696.66 476.772C698.148 477.597 699.617 478.41 701.891 477.729C703.398 474.781 703.479 471.145 700.878 469.379C703.049 467.765 705.036 465.253 706.762 461.837C705.807 461.305 697.212 453.907 698.24 451.881L692.824 448.869C702.328 445.825 710.163 443.082 711.736 440.006C714.048 438.9 716.936 440.354 719.564 441.812C722.555 443.47 725.209 445.128 726.302 443.002C730.16 445.14 733.528 448.304 736.868 451.432C738.394 448.436 743.66 452.674 744.6 453.178C746.268 445.064 740.964 443.386 735.173 440.178C734.145 442.185 714.294 435.008 710.44 432.873C697.891 425.892 690.082 407.305 695.72 396.255C696.115 396.471 698.942 394.677 702.938 392.887C708.836 390.236 717.285 387.584 724.185 391.425C728.028 393.556 766.56 395.638 771.592 390.684C763.362 387.4 753.018 390.684 744.339 385.854C738.567 382.638 733.324 378.405 728.047 374.187C727.008 376.194 720.204 374.976 714.432 371.768C710.585 369.61 700.096 358.624 707.287 344.53L714.486 330.441C717.04 325.422 714.796 317.721 720.975 305.626C726.797 306.303 733.574 307.512 739.411 308.193C739.33 308.197 739.353 308.197 739.476 308.201C739.457 308.197 739.43 308.197 739.411 308.193C740.255 308.165 752.485 308.089 763.626 305.718C763.833 305.894 764.025 306.054 764.225 306.17C765.59 306.919 766.909 307.632 768.877 304.424C774.587 302.718 779.404 300.235 781.265 296.598C783.85 291.532 776.455 293.919 779.052 288.849C770.814 284.279 762.775 285.332 754.234 286.386C744.765 287.551 734.674 288.717 723.015 282.224C723.015 282.224 709.845 261.959 720.112 241.846C726.29 229.767 737.93 233.672 743.576 222.622C746.667 216.574 744.201 216.506 737.984 211.732C736.431 214.756 717.822 217.291 712.925 217.187C710.497 217.111 709.531 216.59 707.601 215.505C699.912 211.224 699.122 183.649 700.667 180.641C702.155 180.153 739.338 158.221 758.921 156.227C762.019 150.179 763.247 140.519 754.548 135.681C755.526 136.23 733.424 140.711 728.285 150.776C726.862 150.52 722.682 154.392 716.672 158.261C708.326 163.644 696.441 169.023 683.512 163.324C684.54 161.321 683.137 159.23 681.207 158.177C680.218 157.608 677.79 157.564 676.824 157.024C672.973 154.881 667.401 144.003 668.946 140.992C669.464 139.974 671.435 138.505 672.467 136.494C672.981 135.489 673.061 132.946 671.098 131.848C673.15 127.835 676.659 125.877 678.197 122.889C679.739 119.857 678.435 112.684 673.637 110.005C668.264 107.013 663.378 109.917 658.607 112.816C653.954 115.652 649.413 118.479 644.654 115.832C640.792 113.681 640.477 107.045 642.602 100.473C644.654 96.4479 649.36 84.8614 654.15 87.5288C656.209 83.4997 655.899 76.8634 657.951 72.8504C664.635 59.75 682.619 63.3225 693.415 42.2L683.777 36.8213C681.207 41.8676 678.369 37.6984 674.776 44.7352C672.21 49.7655 669.552 57.363 669.05 58.3482C665.652 56.4659 660.712 61.2919 655.906 66.114C651.201 70.8439 646.621 75.5738 643.76 73.9838C631.94 97.1248 605.228 91.2895 578.638 80.3478C578.703 77.8206 577.277 75.726 576.82 74.2001C577.342 73.1748 579.344 71.6769 580.368 69.6904C580.87 68.6892 580.947 66.146 579.041 65.0887C582.554 60.567 586.086 56.0534 588.652 51.0551C581.902 47.2984 597.661 4.36067 590.907 0.603973C587.816 6.65555 584.295 11.1492 581.204 17.1887Z" fill="#0055B8" fill-rule="evenodd" />
</svg>