<svg class="splatter-3" viewbox="0 0 251 455" fill="none" xmlns="http://www.w3.org/2000/svg">
	<path d="M175.429 451.948C178.435 448.958 177.594 444.281 181.137 441.576C184.643 438.899 189.979 437.965 193.179 438.812C199.426 440.461 201.821 450.24 208.398 449.876C215.554 449.473 212.091 438.56 217.908 434.662C221.234 432.434 226.035 433.4 230.433 434.37C233.396 435.023 236.175 435.675 238.195 435.351C243.738 434.457 245.128 426.821 247.069 425.672C249.549 424.207 252.412 424.916 255.228 425.63C257.234 426.134 259.213 426.642 261.017 426.361C262.074 426.196 259.51 424.504 261.651 423.598C261.946 423.471 262.87 423.875 263.741 424.276C264.518 424.637 265.252 424.996 265.457 424.981C274.786 424.167 268.847 402.05 272.429 394.552C274.376 390.478 280.876 385.895 284.478 384.18C288.301 382.358 292.857 383.52 295.256 381.412C300.591 376.722 291.734 363.778 292.72 357.208C292.814 356.599 295.209 351.407 295.89 350.292C296.612 349.11 301.782 340.658 304.132 339.226C307.04 337.46 311.121 337.598 315.224 337.738C321.003 337.937 326.829 338.135 329.493 333.006C334.727 322.919 326.167 319.402 319.978 315.024C317.786 313.472 316.166 308.654 314.908 307.419C307.411 300.046 299.508 298.755 299.692 288.054C299.713 286.839 301.193 287.309 301.594 285.978C303.285 280.423 299.895 269.555 302.23 263.852C304.512 258.275 317.978 251.149 311.738 241.722C311.719 241.693 305.795 238.959 304.766 238.952C300.761 238.946 298.161 242.099 295.89 242.414C290.861 243.1 285.934 239.231 284.478 236.881C277.578 225.743 288.813 222.864 293.354 216.827C296.086 213.192 296.319 206.994 299.058 203.686C301.419 200.839 307.117 199.77 310.47 198.153C319.24 193.936 321.539 198.131 330.127 202.306C331.698 203.071 336.085 204.561 337.101 204.376C341.531 203.579 343.819 192.62 342.803 188.472C341.161 181.746 332.319 181.681 329.493 176.712C325.437 169.605 328.299 161.07 335.197 158.046C335.293 158.001 335.912 158.197 336.591 158.391C337.285 158.59 338.042 158.788 338.365 158.735C340.019 158.454 341.904 156.23 342.803 155.972C347.773 154.544 351.032 156.119 352.315 151.132C353.831 145.24 341.138 132.089 339.631 129C334.845 119.167 338.217 101.343 346.607 97.8821C348.917 96.9276 351.583 96.9477 354.093 96.9677C357.249 96.9945 360.163 97.019 361.825 95.1145C366.133 90.1724 359.552 87.2776 359.289 84.7397C358.205 74.4161 369.799 75.3238 374.502 70.2234C377.584 66.8759 376.126 64.3179 378.944 63.999C379.759 63.9031 386.138 67.5784 392.929 71.256C399.706 74.9268 406.896 78.5955 409.372 78.5152C411.921 78.4327 414.02 75.5803 415.076 75.752C415.236 75.7788 416.007 78.5152 415.715 78.5152C417.179 78.5375 418.535 76.6017 420.149 76.4456C422.275 76.236 424.8 76.4478 427.415 76.6597C431.01 76.9496 434.776 77.2418 437.903 76.4456C441.957 75.4063 446.995 69.8688 451.215 68.1449C464.703 62.6408 473.197 50.2677 477.842 37.0249C479.426 32.5132 483.174 21.6946 482.916 16.2797C482.871 15.3743 480.634 14.2436 480.38 12.8207C479.607 8.50977 485.023 1.79691 484.816 -3.08719C484.807 -3.29013 482.912 -8.61581 482.916 -8.61581C480.28 -11.4058 474.426 -9.88034 471.504 -11.3835C468.995 -12.6703 463.49 -20.0388 463.896 -23.8301C464.043 -25.2217 467.439 -27.4832 467.068 -29.3654C466.28 -33.3686 462.226 -33.1456 459.139 -32.9203C458.3 -32.8579 457.534 -32.7977 456.924 -32.82C451.798 -33.014 450.534 -36.5488 446.779 -38.3531C444.331 -39.5261 440.661 -39.1693 438.537 -40.4227C436.281 -41.7608 435.309 -45.5343 433.461 -46.6516C427.217 -50.4273 422.136 -47.0597 417.107 -43.6944C412.636 -40.7014 408.207 -37.7086 403.034 -39.7336C400.349 -40.784 397.924 -45.532 395.424 -47.3385C395.247 -47.4701 394.724 -47.3474 394.101 -47.2225C393.262 -47.0552 392.241 -46.8902 391.624 -47.3385C391.3 -47.5771 391.347 -49.9969 390.988 -50.1061C387.361 -51.2703 383.756 -50.4295 380.445 -49.5887C377.544 -48.8528 374.871 -48.119 372.604 -48.7256C371.344 -49.0602 366.432 -52.2828 364.993 -53.5652C364.037 -54.4171 363.392 -58.088 361.825 -59.096C354.533 -63.795 346.823 -59.0581 349.145 -50.7975C350.667 -45.3871 358.722 -41.8611 359.921 -36.2768C360.703 -32.6416 358.214 -26.261 358.653 -21.0602C358.886 -18.3127 360.372 -15.9888 360.557 -13.4576C361.127 -5.58054 359.883 16.4871 354.217 17.6647C351.615 18.2021 345.862 11.4491 339.631 10.0553C337.176 9.50665 335.182 9.92148 333.577 10.3318C332.129 10.7065 330.998 11.0767 330.127 10.7489C328.208 10.0218 328.765 7.42145 326.321 5.21356C323.445 2.61761 316.71 -1.8985 312.37 -3.77631C308.517 -5.44672 304.41 -7.48288 302.23 -7.9267C297.662 -8.84106 296.966 -13.2947 295.256 -11.3835C292.101 -7.85535 281.875 -21.174 280.674 -21.7583C279.924 -22.1196 279.517 -21.9434 279.179 -21.7672C278.848 -21.5977 278.588 -21.4237 278.138 -21.7583C274.577 -24.3877 268.527 -30.572 267.993 -37.6595C267.069 -50.0437 269.327 -62.9163 267.359 -73.6212C266.467 -78.4875 264.802 -86.9733 262.285 -89.5269C260.786 -91.05 258.062 -90.1312 257.215 -92.2923C253.885 -100.789 258.741 -118.82 260.387 -122.721C263.039 -129.001 271.55 -154.211 259.751 -154.528C254.284 -154.682 255.409 -149.769 254.045 -147.612C253.334 -146.49 251.475 -146.827 250.875 -146.229C247.282 -142.692 248.599 -138.296 248.339 -134.478C248.247 -133.151 245.051 -128.225 244.535 -125.489C244.236 -123.878 244.466 -123.918 244.116 -123.959C243.86 -123.988 243.299 -124.017 241.999 -123.408C234.051 -119.71 239.004 -99.3173 229.318 -97.8231C222.278 -96.7415 222.118 -104.115 217.272 -108.198C216.111 -109.181 213.874 -108.809 212.836 -109.583C207.915 -113.236 207.281 -120.787 205.86 -122.721C203.644 -125.745 195.598 -130.005 193.179 -129.634C188.624 -128.939 184.318 -120.06 180.503 -116.494C178.435 -114.563 177.991 -112.527 176.065 -110.963C173.271 -108.698 167.166 -109.371 162.751 -107.507C161.073 -106.8 159.088 -103.457 158.315 -103.358C157.087 -103.2 155.608 -104.172 154.078 -105.143C151.52 -106.766 148.82 -108.39 146.901 -104.739C147.485 -108.503 146.489 -107.888 145.711 -107.27C145.4 -107.025 145.124 -106.777 144.999 -106.813C144.326 -107.011 141.047 -109.222 137.392 -110.27C132.88 -111.563 130.954 -119.24 128.512 -119.953C126.589 -120.515 116.043 -116.74 114.566 -115.114C113.377 -113.8 115.14 -112.509 113.932 -111.653C113.537 -111.372 112.685 -111.668 111.87 -111.965C111.144 -112.228 110.448 -112.495 110.13 -112.346C109.662 -112.128 109.62 -110.096 108.862 -109.583C106.415 -107.912 102.43 -104.598 99.9855 -103.358C99.2319 -102.979 98.2308 -103.147 97.2573 -103.312C96.3821 -103.461 95.5303 -103.613 94.9134 -103.358C92.3816 -102.319 90.3365 -93.6014 90.4753 -91.601C90.6482 -89.1165 91.1776 -89.1299 91.2566 -89.1455C91.327 -89.1567 91.0431 -89.1678 89.8391 -87.4528C89.1368 -86.4336 88.1869 -80.0285 87.3052 -79.152C85.8835 -77.7448 78.0106 -74.5155 74.6292 -74.3126C72.0974 -74.1609 69.6958 -74.821 67.4714 -75.4811C63.4752 -76.6676 60.0596 -77.8541 57.5065 -74.3126C56.612 -73.0637 57.3954 -70.3339 56.8746 -68.7795C54.3641 -61.2571 45.4858 -56.703 41.6582 -50.7975C38.0164 -45.1752 41.5878 -41.7519 41.0242 -36.9659C39.959 -27.9002 34.8036 -25.699 31.5161 -20.3733C30.5128 -18.7498 31.1212 -16.4148 30.2438 -14.8402C28.5467 -11.7715 24.7383 -9.28708 24.5419 -5.85037C24.4331 -3.93912 26.4205 -2.71252 25.8078 -1.00644C25.1674 0.775482 21.3548 1.23938 20.1017 3.83307C18.9831 6.15247 20.2084 8.97141 19.4698 10.0553C18.4216 11.5919 16.7224 10.8626 15.0317 12.1338C9.49631 16.2909 -2.54999 27.5444 1.71948 35.6422C5.4382 42.7074 15.5547 47.868 17.5677 54.311C20.2853 62.9976 18.0694 77.137 14.3977 83.3592C12.1263 87.2085 6.7959 88.2477 4.25555 93.7295C-1.64056 106.457 6.96454 114.907 11.8595 122.778C13.2321 124.979 17.3094 131.063 17.5677 131.765C17.7812 132.347 16.2933 134.995 16.2997 135.227C16.511 144.094 23.782 147.002 27.078 151.819C27.49 152.419 26.7086 153.949 27.078 154.587C28.6342 157.279 32.7243 159.52 34.05 162.194C38.0377 170.214 34.097 174.335 35.3202 184.326C35.6959 187.422 38.2874 190.486 37.8584 192.62C37.5446 194.155 35.8816 193.905 35.9478 195.39C36.3747 204.193 41.5835 208.945 46.7303 209.22C56.7508 209.75 60.3115 208.718 67.0188 217.518C70.8421 222.534 73.4764 230.125 77.1588 234.806C81.2447 239.989 87.8752 243.1 91.1093 247.944C96.4419 255.933 90.7571 268.447 85.4032 272.84C85.0509 273.128 84.402 273.005 83.753 272.88C83.1766 272.769 82.6003 272.659 82.2331 272.84C79.7034 274.1 74.2513 278.085 72.7228 279.754C72.535 279.965 72.5414 283.215 72.0867 283.906C70.9809 285.61 69.3265 285.588 67.3519 285.565C66.086 285.552 64.6856 285.536 63.2169 285.978C61.0587 286.629 54.8103 292.205 49.2664 293.585C48.4381 293.793 47.691 293.677 46.9865 293.561C46.2351 293.44 45.5306 293.318 44.8304 293.585C32.8887 298.186 43.8399 318.175 49.9026 313.641C50.9593 312.852 48.1371 310.586 49.9026 310.876C51.2432 311.099 52.6563 314.953 56.8746 317.1C60.636 319.014 62.8028 319.977 63.2169 323.325C63.9021 328.922 57.9355 328.516 56.8746 330.932C52.7844 340.247 74.3879 347.37 76.5269 351.677C76.7511 352.125 75.7072 355.702 75.8951 356.516C76.9944 361.265 80.3139 363.631 79.0651 370.35C78.429 373.762 70.729 381.156 73.9951 385.565C75.5407 387.652 80.0792 387.099 84.3657 386.546C87.286 386.169 90.0889 385.792 91.7455 386.251C94.004 386.883 98.9395 390.928 99.9855 392.478C104.486 399.133 96.5273 415.567 106.326 418.065C115.187 420.324 123.719 420.612 129.15 430.512C130.386 432.764 128.553 434.836 130.42 436.736C135.23 441.636 139.704 437.992 144.384 434.348C147.976 431.549 151.695 428.75 155.777 429.823C159.297 430.744 162.819 437.332 164.015 441.576C165.268 446.005 164.755 448.605 166.557 450.565C167.11 451.174 168.69 454.08 171.328 454.08C172.487 454.08 173.854 453.516 175.429 451.948Z" fill="#0055B8" fill-rule="evenodd"/>
</svg>